<mxfile host="app.diagrams.net" agent="Mozilla/5.0 (Windows NT 10.0; Win64; x64) AppleWebKit/537.36 (KHTML, like Gecko) Chrome/129.0.0.0 Safari/537.36" version="24.7.17">
  <diagram name="Page-1" id="f1b7ffb7-ca1e-a977-7cf5-a751b3c06c05">
    <mxGraphModel dx="2074" dy="1132" grid="1" gridSize="10" guides="1" tooltips="1" connect="1" arrows="1" fold="1" page="1" pageScale="1" pageWidth="826" pageHeight="1169" background="none" math="0" shadow="0">
      <root>
        <mxCell id="0" />
        <mxCell id="1" parent="0" />
        <mxCell id="13" value="" style="verticalLabelPosition=bottom;verticalAlign=top;strokeWidth=1;shape=mxgraph.mockup.graphics.iconGrid;strokeColor=#CCCCCC;gridSize=1,1;" parent="1" vertex="1">
          <mxGeometry x="20" y="120" width="800" height="480" as="geometry" />
        </mxCell>
        <mxCell id="2" value="Nelson&#39;s Merch | Ecommerce website Design" style="text;spacingTop=-5;fontSize=18;fontStyle=0" parent="1" vertex="1">
          <mxGeometry x="70" y="30" width="230" height="20" as="geometry" />
        </mxCell>
        <mxCell id="3" value="" style="line;strokeWidth=1" parent="1" vertex="1">
          <mxGeometry x="35" y="60" width="780" height="10" as="geometry" />
        </mxCell>
        <mxCell id="4" value="" style="line;strokeWidth=1" parent="1" vertex="1">
          <mxGeometry x="35" y="90" width="780" height="10" as="geometry" />
        </mxCell>
        <mxCell id="8" value="Section 1" style="text;spacingTop=-5;" parent="1" vertex="1">
          <mxGeometry x="20" y="120" width="30" height="20" as="geometry" />
        </mxCell>
        <mxCell id="11" value="Contact Us:" style="text;spacingTop=-5;" parent="1" vertex="1">
          <mxGeometry x="740" y="70.00000000000013" width="30" height="20" as="geometry" />
        </mxCell>
        <mxCell id="20" value="" style="verticalLabelPosition=bottom;verticalAlign=top;strokeWidth=1;shape=mxgraph.mockup.graphics.iconGrid;strokeColor=#CCCCCC;gridSize=1,1;" parent="1" vertex="1">
          <mxGeometry x="20" y="15" width="40" height="40" as="geometry" />
        </mxCell>
        <mxCell id="22" value="Section 1" style="text;spacingTop=-5;" parent="1" vertex="1">
          <mxGeometry x="35" y="70" width="30" height="20" as="geometry" />
        </mxCell>
        <mxCell id="23" value="Section 2" style="text;spacingTop=-5;" parent="1" vertex="1">
          <mxGeometry x="129.99999999999997" y="70.00000000000003" width="30" height="20" as="geometry" />
        </mxCell>
        <mxCell id="24" value="Section 3" style="text;spacingTop=-5;" parent="1" vertex="1">
          <mxGeometry x="230" y="70.00000000000013" width="30" height="20" as="geometry" />
        </mxCell>
        <mxCell id="26" value="Article&#xa;Picture" style="text;spacingTop=-5;align=center;verticalAlign=middle;fontSize=36;fontColor=#CCCCCC" parent="1" vertex="1">
          <mxGeometry x="106.25" y="182.5" width="627.5" height="355" as="geometry" />
        </mxCell>
        <mxCell id="27" value="" style="verticalLabelPosition=bottom;verticalAlign=top;strokeWidth=1;shape=mxgraph.mockup.graphics.iconGrid;strokeColor=#CCCCCC;gridSize=1,1;" parent="1" vertex="1">
          <mxGeometry x="20" y="620" width="800" height="480" as="geometry" />
        </mxCell>
        <mxCell id="28" value="Section 2: Why Nelson&#39;s Merch?" style="text;spacingTop=-5;" parent="1" vertex="1">
          <mxGeometry x="20" y="620" width="30" height="20" as="geometry" />
        </mxCell>
        <mxCell id="30" value="" style="verticalLabelPosition=bottom;verticalAlign=top;strokeWidth=1;shape=mxgraph.mockup.graphics.iconGrid;strokeColor=#CCCCCC;gridSize=1,1;" parent="1" vertex="1">
          <mxGeometry x="155" y="700" width="530" height="320" as="geometry" />
        </mxCell>
        <mxCell id="31" value="Article&#xa;Picture" style="text;spacingTop=-5;align=center;verticalAlign=middle;fontSize=36;fontColor=#CCCCCC" parent="1" vertex="1">
          <mxGeometry x="240" y="760" width="360" height="200" as="geometry" />
        </mxCell>
        <mxCell id="32" value="" style="verticalLabelPosition=bottom;verticalAlign=top;strokeWidth=1;shape=mxgraph.mockup.graphics.iconGrid;strokeColor=#CCCCCC;gridSize=1,1;" parent="1" vertex="1">
          <mxGeometry x="20" y="1120" width="800" height="480" as="geometry" />
        </mxCell>
        <mxCell id="33" value="Section 3: Customer Reviews" style="text;spacingTop=-5;" parent="1" vertex="1">
          <mxGeometry x="20" y="1120" width="30" height="20" as="geometry" />
        </mxCell>
        <mxCell id="35" value="" style="verticalLabelPosition=bottom;verticalAlign=top;strokeWidth=1;shape=mxgraph.mockup.graphics.iconGrid;strokeColor=#CCCCCC;gridSize=1,1;" parent="1" vertex="1">
          <mxGeometry x="140" y="1190" width="560" height="340" as="geometry" />
        </mxCell>
        <mxCell id="36" value="Article&#xa;Picture" style="text;spacingTop=-5;align=center;verticalAlign=middle;fontSize=36;fontColor=#CCCCCC" parent="1" vertex="1">
          <mxGeometry x="240" y="1260" width="360" height="200" as="geometry" />
        </mxCell>
        <mxCell id="PW2f4djHKJtkNT6Ym_qg-61" value="" style="shape=image;verticalLabelPosition=bottom;labelBackgroundColor=default;verticalAlign=top;aspect=fixed;imageAspect=0;image=data:image/png,iVBORw0KGgoAAAANSUhEUgAAAfQAAAH0CAIAAABEtEjdAAAACXBIWXMAAA7EAAAOxAGVKw4bAAAEq2lUWHRYTUw6Y29tLmFkb2JlLnhtcAAAAAAAPD94cGFja2V0IGJlZ2luPSfvu78nIGlkPSdXNU0wTXBDZWhpSHpyZVN6TlRjemtjOWQnPz4KPHg6eG1wbWV0YSB4bWxuczp4PSdhZG9iZTpuczptZXRhLyc+CjxyZGY6UkRGIHhtbG5zOnJkZj0naHR0cDovL3d3dy53My5vcmcvMTk5OS8wMi8yMi1yZGYtc3ludGF4LW5zIyc+CgogPHJkZjpEZXNjcmlwdGlvbiByZGY6YWJvdXQ9JycKICB4bWxuczpBdHRyaWI9J2h0dHA6Ly9ucy5hdHRyaWJ1dGlvbi5jb20vYWRzLzEuMC8nPgogIDxBdHRyaWI6QWRzPgogICA8cmRmOlNlcT4KICAgIDxyZGY6bGkgcmRmOnBhcnNlVHlwZT0nUmVzb3VyY2UnPgogICAgIDxBdHRyaWI6Q3JlYXRlZD4yMDI0LTEwLTE1PC9BdHRyaWI6Q3JlYXRlZD4KICAgICA8QXR0cmliOkV4dElkPmQ0MTY3NmQ3LTIxM2EtNGJkNC1hNjMzLWVjM2RhNTk0NWI1ZDwvQXR0cmliOkV4dElkPgogICAgIDxBdHRyaWI6RmJJZD41MjUyNjU5MTQxNzk1ODA8L0F0dHJpYjpGYklkPgogICAgIDxBdHRyaWI6VG91Y2hUeXBlPjI8L0F0dHJpYjpUb3VjaFR5cGU+CiAgICA8L3JkZjpsaT4KICAgPC9yZGY6U2VxPgogIDwvQXR0cmliOkFkcz4KIDwvcmRmOkRlc2NyaXB0aW9uPgoKIDxyZGY6RGVzY3JpcHRpb24gcmRmOmFib3V0PScnCiAgeG1sbnM6ZGM9J2h0dHA6Ly9wdXJsLm9yZy9kYy9lbGVtZW50cy8xLjEvJz4KICA8ZGM6dGl0bGU+CiAgIDxyZGY6QWx0PgogICAgPHJkZjpsaSB4bWw6bGFuZz0neC1kZWZhdWx0Jz5HcmVlbiBSZXRybyBWaW50YWdlIElsbHVzdHJhdGlvbiBPdXRkb29yIFRyYXZlbCBBZHZlbnR1cmUgQmFkZ2UgTG9nbyAtIDE8L3JkZjpsaT4KICAgPC9yZGY6QWx0PgogIDwvZGM6dGl0bGU+CiA8L3JkZjpEZXNjcmlwdGlvbj4KCiA8cmRmOkRlc2NyaXB0aW9uIHJkZjphYm91dD0nJwogIHhtbG5zOnBkZj0naHR0cDovL25zLmFkb2JlLmNvbS9wZGYvMS4zLyc+CiAgPHBkZjpBdXRob3I+TWFyY2Vlc2UgTmVsc29uPC9wZGY6QXV0aG9yPgogPC9yZGY6RGVzY3JpcHRpb24+CgogPHJkZjpEZXNjcmlwdGlvbiByZGY6YWJvdXQ9JycKICB4bWxuczp4bXA9J2h0dHA6Ly9ucy5hZG9iZS5jb20veGFwLzEuMC8nPgogIDx4bXA6Q3JlYXRvclRvb2w+Q2FudmE8L3htcDpDcmVhdG9yVG9vbD4KIDwvcmRmOkRlc2NyaXB0aW9uPgo8L3JkZjpSREY+CjwveDp4bXBtZXRhPgo8P3hwYWNrZXQgZW5kPSdyJz8+y+yHjgAAIABJREFUeJzsnYdXFEn3998/5ueuYdewwUfMSs4555yTIIgIKiCKkpEsOeeM5CAY0DWtGTFLUBSzrvm90DgO3T093T2hZ4Y653M4w0yH6uqqb9+qvnXv/zt57jQCgUAgFIz/x3kJEAgEAiF2kLgjEAiEAoLEHYFAIBQQJO4IBAKhgCBxRyAQCAUEiTsCgUAoIEjcEQgEQgFB4o5AIBAKCBJ3BAKBUECQuCMQCIQCgsQdgUAgFBAk7ggEAqGAIHFHIBAIBQSJOwKBQCggSNwRCARCAUHijkAgEAoIEncEAoFQQJC4IxAIhAKCxB2BQCAUECTuCAQCoYAgcUcgEAgFBIk7AoFAKCBI3BEIBEIBQeKOQCAQCggSdwQCgVBAkLgjEAiEAoLEHYFAIBQQJO4IBAKhgCBxRyAQCAUEiTsCgUAoIEjcEQgEQgFB4o5AIBAKCBJ3BAKBUECQuCMQCIQCgsQdgUAgFBAk7ggEAqGAIHFHIBAIBQSJOwKBQCggSNwRCARCAUHijkAgEAoIEncEAoFQQJC4IxAIhAKCxB2BQCAUECTuCAQCoYAgcUcgEAgFBIk7Qs4YPDPc1ttd1dKcX1WVUlBwID1j95EE333Rjjt3m3oHajp6bDa3X6Nr+ouy7pLtOkKBzWBj2AV2hN3hIHAoOGBsRkZqYWF+dVV1a0t7XzeclPMLRyAYgcQdIaO09nTnVVYeSEv3iYw28QpQsXFRMrL+XcOIjmRLAjg1FACKAYWBIh04mgHFg8cM5xWFQJCCxB3BPX0nT5Q21CfkHguOjbMJ3Kls6/KbhiFXIs4UKCoU2GZHCBQ+MfdYWWM9XA7nVYpAIHFHSJv2vu6MkpKIxGTXsAgdF++/DSw4F2ixAxel6+oNFxiZmAwXC5fMebUjFhtI3BESZ/DMMBjm+1JSwbxVMrLmXHk5AS4cLh8qAUz7obOnOL8pCIUHiTtCInT096YWFvrti9Fy8lyuZsC5tsoUKzQMYcgSEBWbUVwMFcX5zUIoJEjcEWJj8PRwTnmZz96orZYOnAuoHKFs7eQfdSCvshIqkPObiFAYkLgjRKXueOu+lFQTT/8V8vMWVDaBCoRqhMps7DrO+W1FyDtI3BFs6B7qT8nPdwmNWGdsxbkmKiTrTWzcd0emFxf3Dg9yfrsR8ggSdwQDQGgOZ+eAdblMVZ9z+VskQFWbeAUcyc5BKo9gBBJ3hHBAVhJy88x9dyBN51bl4RYkHstDfvQIOiBxRwgERARpugyyQt3QOiAktbAQqTyCAiTuCBJq2ppdwyLkaJno4mSllrHXnv2VzU2cNxiEDILEHfGT/lMnDmfnaDq6cy5bCEbALTuSnYM8KRH8IHFHzFJ/vA1sQLAEOdcpBGvW6Jj57YupbW/lvDkhZAEk7osasPUSj+XpuHhzLkyis0xNf6Wm4R+6Jn/pmf6tb/o/QzMlI/P1xuYbTCw2mVluMbfaamENwAf4F76En2AD2Aw2hl1gR9gdDsL5hYiOrqt3Ul4eClO8yEHivkjpGRqISEyWIy/1v/RMtB0dnYP9wg+Gp2YfLK1IbmvLOT1ccuty3fT9499fnhAjcEA4LBwcTlFSkZySfRBOCqeGAkAxOK8KmsDNjUxMhhvNeWNDcAIS90VHU1eHV+T+3zU5C4xOwVoDUz1nZ7cQ/8i4PRnH4urrM06dKLlzteHdZI945VsUoDBQpJMniqF4UEgoKhQYig2F57wCicCN9o6MgpvOecNDSBkk7ouI4roaS/9gmimKpMNqHSMjN5eQmF05BUf6egoe3mr++mKQc/lmARQbCg+XABcClwMXtVJLhh6fcNPh1kMD4LwRIqQGEnfFZ+jsqaS8PHV7mfCBAZXRcXKMOBQOZu/da42ci7Lk+PZiEC6wriFjz6E92o6OMvJMhWaQnJ+PYg4vBpC4KzInRk4ezs7ZYGrLraD8oWviFOSbmn3wRH/R6/EuzmWXE16Nd8HlQyU4BPpChXB7R6BJHMnOGRo5yXkTRUgOJO6KyRDXsr5URc/c2z0t++DFkcovMwOca6tMARVyYaQChN7M0w0qiqt7tMXCIQWseCTxCgoSd0UD+iqMuzdbcBNRfauFzZ5DezqOH3u1WC10pkBFQXWFHwzfZGbJocQPo4kahQOJu+IA/ZMrWddxcgQ79OalOs61Uq6BCoRq1HZ0lP4dVLZ1SS8pQRKvSCBxVxBKG+pVbV2kKQe/KOuaerrlFsY/uNnEuSwqGPdvNOUUHDHxcJPya1htZ6+SulrOGzNCLCBxl3tae7ptdoRIrf8vVdGz9fcqqUieutPGuQgqPFDJJeXJtn7e0pyatwkMbenp5LxhI0QEibsc0zs8uCPm4Ap1KcVu1LR3yCuOf/agg3PJW4RM3z8OlQ+3QDr3GhpV0IFDKKSwXIPEXS4ZGjl5IC39D10zKfTzP3RNIuP2XD5XxbnAIQC4ERGHwqXjTLnWwPJIdg6aiJdTkLjLH4U11VstJW7B/aKsax/g09yc9eFJH+eKhsABN6WpKcsuwFsKk/Lq9m75VVWcN3sEU5C4yxPtfd02gTsl3Zm3WlinZh98PNrCuYQhhAK3CW4W3DJJtwqbHSEdg72cdwEEfZC4ywdDIyf3p6RJOt66qacb2IOfn/VzrlkIRsAta2zKhNsn0eaxRsc0LisLzdLIC0jc5YCatmZlSbo5LlXR848IujhSyblIIUQEbqLfnmCJutZoOrpDg+S8UyCEgsRdpuk7ecJvf8yvEptXXaNjfDB5P5qBUTDghsYm7YObK6FmAw3Sf/8B5Esj4yBxl10yiovXGkoqmcZWC+uC0sQ3E92cKxFCQsDNzS9JlNx0PDROaKKcdxOEIJC4yyIt3R0mXgES6pNbzK1q6o5+eY4m1hcFcKOr69LgpkuoOUFDbe/r5rzLIIggcZc5cioq1hpYSKIfrjexKK1I/oTely4+4KaXVCRDA5CICW9gAY2W846DwIHEXYYYOD3kGbFfQrKeV5yAPNYXOdAA8orjJZQO0DsyChow550IwQOJu6xQ3tiwxcJeAlaVKZJ1BD/vJnsyjsVJQuKhAde0tnDelRAYSNy5Z/jsqV1x8WJ3X1uhbhB/NPrthAyllkbIDtAwDqdFQyMRb6tbpqq/PyUN+cLLAkjcOaa1t0vf1UfsNpRP+I6Ht5o5VxCmvJ/qhWJ/Ri97pQXUtvfuHWJvftCkoWFz3rkWOUjcuSSztGS1tpgjQOk6O40Ml3GuGkwZu9rgEx60THV2+LLZ3OrJ3XbOi7R4gAYDzUa87RAaNopIwy1I3LkBxq07Yg6KtzutMzSrrkv7+mKQc7Hg0d2ZF5O4lzqHKtjpecUJy9X0+a/lRH8R54VfVECzqao9Ck1IjA3yF2Xd8COJaIqGK5C4c0DnYJ+Rp794e1HEofDXMpa29GjOoSVzUeAH+gquXai+faV+9N/6K+erhweLGhoz4NeQ6FADF+cV6gtkfa2BaW5RPOeFX5xAEwqP3S3eSJPQ1HuHBznvdIsQJO7SprK56X9G4lxRompte+6ULM7DmHjQjWP1q4qex66AtOyDZ0+WUZv5CCkAzQkalRib6AZTO2j2nHe9xQYSd6kSl5W1XE1s/gnL1PSTMg98nJZRN8fcwnhBNuBqHSOHQJ+NpvNrasCK57y0CH7+e9qbkB6zbOFcmShAs0/OK+C8Ay4qkLhLicHTw447d4vRGjJ0c711uZZzFaBm4nZrY2Nmdv7h5KzY1OyDRaWJPV159280fnsx2Nl5DLsQSx/3r8hal0mggUEzE2Oj9YrcDx2B8864SEDiLg06B3q1nDzF1UNWahkVlibK1ItTpkzdaf9TdzZm4WptI3l02Vw8QDPLL0mEJieu1gsdoXuon/MuuRhA4i5xGjuPrzcRW2Q+xx0+ChCh1znYD7ucypo0zguDEAo0OWh44mrDmy0coFNw3jEVHiTukqWgunqNjnjcy5ap6Wcei1OA940NjRnYFbkE+3FeGARNoOEdzTkkrll46BTQNTjvnooNEncJcjgrZ5mqeDqDhp39tYs1nPdw0Xn+oONv/dmoJvCXeqXSy8ddpAEsn95rf/GoE/v8abr/wc0mUTbjbfBKgCPpx+m+3u786IS99gHeVr4esUn7/3vaS9zs4khFUuYBtxB/C2+PoP0hj0bJ55ooTkR91TICNMLtljbiMVZU9VMK0CtWCYLEXVIERseKaxgbk7iXVFDkkYDIYOyi2ttzSDcYHiyCbbAHwEotw77ufN5PM486QF7h+9zC+HdTPXEpUat1ZueC9ZydvvG9gaC52fe5J01m3mF9F2fMq8fK15P/19fjXaDXf+nhlxCfPFHC2wbs2dr6dGUrvOMg7Ej/RNRXLWu8m+wJjQ4TV9veE5/EeVdVVJC4i5/B08P2weJp/esMzXpluJ8zBa4Fuy6vsEDir1fOVxu54VPFdnfm8Tbw3RO0ZDYgmv7p4RJ1258RNEG7+Wer6GwGFjTo7++ahvzn0nNy4h2kqDQRe+WLqa2ljzv2eamK7vhoK7bN8GCxqs28rP+qomfg4sx7ErS0ZNE8kdCrlk3gVoprOSt0liG0ilUCIHEXM2J0jHEPDXj2oIPzbiwuXo13YY7tq7WNpu604X7tOJ6LBZYB23ZnVKiF96zpHRq9i2drg5Ji1eITHvS/OVlxCvLFvklIj+Edh85mbye7eWK93dI6MSNm9jlqZH7pXBX8CmeEAmC/gnY3NGbAsOne9cbl6vogynB87CBVtWmYGf6HjnHGsbjnc3cKjrbBxAIeDHROROeqZRlonHYB3mJp6obuvsiFRuwgcRcn7f09ytZiCMC0VEWv4IdAKAxB+0OwqyNe2sNbzb9pzK7t2mJhdf5MBfbNnWsNvA0+P+/XsLNbMmePg0EN5nNjYyZmocMDgxfWmOZmew6GYyWJio8E4QZz/uJIBQgx9mtRWRLvV7C7eWXgF9zrF2t+nQvRbO3r9fReO+k2Qk8k9KrlgvySRLFEq4aO03UC6bs4QeIuNkDZN5nZid7K/9IzlcewjtR0dORiVwfGL9HhByzfOdvWZuJ2K5jGZ0/iL/9YUTyvfpar6fd05XV15mH/Dg0UMdoMzo5Jal5xAohpc3MWLuS9hv3sTE5k3B6Ky9l7OAK20XZ0oIhOLPREQq9aXjg9VIK9LRBd36ETcd6RFQYk7uKhqatDLMpu7O46fruV8+4qXqbutPE6P5iuxA3Ssg9icrx8LojYKi1Dfo8RMI1XaxvxJLuvO//NePd6Y3P4F0xjppuB5mIzIbyNM/MO8xdGzWb+Pipb2cJoo6I6dXIMf0ciDs2b5P8zNHMLDcgpOHL9In61sNATUV+1fPF4tMXUk24oIQqgEyF9FxdI3MUAKPs6YzHEAguNDpPf7i0I0DjMdwUIjw0n3ebBzaY/dObfXhq6uvAb40DwjxnwpSq6YIzDN3GpUfAvCDfIN9PNgP3xEdiWILsxiXtx0TRPnihZZ2SOuzW+e4L4NwNbW48QAB1KfutyHf0TUV+13AFNNzxWDAE2QN+hQ3HeqRUAJO6iIhZl/13ToK4hg/P+KV5AUt1C/A8k7sOucaOpBWlQ4pHhsi0WVnO92rLjeC7/T0VlSVAtvFrCXFBePu5aqTXrfFL/o8Y+TfcH7w+ls9mhlP28kLah0bue3T/OO9fDW83puXE8nRoeLE5IjzH3csesbyBw705cya9eqAGb3XWn35offjVwCdik039Pe+FJRnEi6qsmjgPkharao8tFXugEHQrpu+ggcReJ2vZW0ZV9rYHpP6fKOe+W4uXbi0FQPf7LHOgrIG4G1isWz90rLJDfvn413uUTHvR/27S3WsxHbsg4Nq+8pRXJS+b8WLBwY++neh0Cvf/vx1koNnPc4fN/27UxO7qvZ0FhwNL/S89E2cp25lHHv/9U8f8E32BzSsbuLtg3IP1nhkv5353CNw6BPkvmnF7eTc1OrO+es2EFnWizmRXFVcP3TU1ZnN9B1kBjFj37NtJ30UHizh5Q9j/18ON3pmjaOyhk5KyyyhT+yww7EEa6Ge8VKL9tOzxYBPYsfLlCQ59oNWPeL9GJe7/PWcF6Tk7/t02Hzmbw79I5U5r/ZSkY+BFxe7Dd9x6O0HN2ghEG5iTzdrK7rzufF1OlvCoV2yUmcS/8e/tK/fe5SacLZyrggJjzjH9EMLbNqrlBg6AT8aanSa96tY4RPPM4v4OiABUu+kJW0HfoYpx3c/kFiTtLGjuP/6UvqrJb+HjIWvokcbHBxIJ3mTpOjmA4k25WXZuGbQOqmpR54GDyPt6KHtgLW0akYW+PmcMY3mGBS+aiF7iF+P+mYQDW/XI1PaGbwWf4BivVcnX98Njw1OyDwVGh2NvOZap6WfmHJ8da52XFyPx/hma/8nn4JWb8dKXHFi6BBMNjYDlfGinnYD+emyPm0S/oRFXVqYKuWt/F+e71Rs5vn+jMPOyA5i1iB/nbwAKFGGMNEnc2QINTMhbVMNkZHap4r08xPj/v5028qtnYEZcs8fjvaa89YSEMaGthSSJYfwYuzkpGZjixGxku4x18hbp+YnoMnc1yC+O/vRjs7szDLRYF3EIDsBehX2cG+Fe0Lplbd+oe6n/53IKJGtBr3BGgAG1t2fzbUJ+I4qoVqUnAtUAjF7GbrDexbu3p5rzLyyNI3BnT1tstorL/oqyb+WNqWFFpb88BWQSzFOfcTQQ09+SJkqM5hw4k7kvPPTQ0UEThPI4xdrUhp+BIbX06xWND0GZP77VXVKXEpUYdTouCDxMLHU9fPu6qrEk7cjQaSt7cnMU/bcIDigdXBxvEH40pr0oVtOyI+kQsrlpOSc+NE1Hft1g4dAz2ct7x5Q4k7szoHOzbYmEvSksFc7KzI1fSPQqBkB0aGjJEdKFRs3NF+s4UJO4M6B0eVLHBx3hixEoto1N8MQURiEXC8GDRKm38PBVTfYcOyLkIyBFI3OkCDUvHWaSIYH/qGl8cqeS8myEQnHD+TIWI+q7j4j1weohzKZAXkLjTApqU6Mp+81KdpPsPAiHLgL4T4+MzwsQr4MTISc4FQS5A4i6coZGT5r47RGmR6wzNkLIjEN/nAmoqEaI7MMJx527ONUEuQOIuHP+oA6K0xS3mVvduKILnMgIhFu5ea+QtPGZHcGwc57Ig+yBxF0JcVrYorVDV2lbxojwiECLyeLRFRH0/lJnNuTjIOEjcqcgpLxclEQEouyKlUkIgxAjou5ot+yjZ0DFzyss4lwhZBom7QCqbm37XNGLd+LZZWD+92y7pHoJAyC9P7raLEoIGumdlSyPnQiGzIHEnp7W3a62BBetmt97E4tGoAoYDQyDEy8NbzfxhiJiy1sCycwAtbiIHiTsJPUMD26wcRVH2sav1nHcbBEIuGP23XhR913Bw7z91gnPRkEGQuOMZGjmp7+bDuqn9pWeKlB2BYATouyhZWC39goeQ8zsBJO54RHF8XKVteOV8NeddBYGQO/79p2q1DvtXXMg5kggS9wWkl5Swbl6/aRiIN4H9k7vtecUJuUXxFVUpHR25p4aKL5+runCmYqCvoK4hHb4fu0oej/DVeFdhSWJ5VSrsNTJcdvVCzfkzFfC5qDQxvyRh5hHegefTs/7ZAxbGV9WmtbfnwPFPD5fALnA62PfaherrF2f/wr8XRyrOnSo/M1za31sAW8JeJeXJOQVH+rrzSUty41ItHBbO29KSPTxYfGnugFBLsHtLSxZ8f6wo/vFoC4vKgSIdzTnkFOS73dIaRAEqH4b22o4OXmGB8H1vd/7UnbbrF2ura9NweU2F8nG6r7Pz2O7Y3fouzn/pmfyqordcTX+dkbmJu2t0wt7BvkIstRPNQ1VUp0L9QC21tuYMDxZBBUI1wge4fLiDJwUEGoJT1NVnFJUlwV6wDVgMUHVQyXBPoT4pruj5gw6oUp/wIBs/L49dAWnZB8dHGXjiQqUVlyfD7hr29n/qGi9X119rYKpua+8Q6BOXGgVlvnOt4dFoc0NjBlyCGJs6xpmTpVjkfRb8oqybXlzMuYDIFEjcf9Lc1blSy5hd2/pVWber85h427pbiD/1SaH7kca8JQYc54eYCxSeBKwfaTyIQxZQKDprzU083BhVC4idsTuD8G2gUAKfHy/g749seS8G3050px+L+1NXSBvYZGZZWZNGR+J5eaYogOccccfm5iyKXdYbm5OeDh5pWAYofn7XNMTlaCXl3vVG0PRfmTj+woNH7PrecfzYr3PZslgAnRdl5uMHifs8fSdPKNuyj/gI+ij2ho7lEqImJDqUuOP++AiKXUD6cduDscb6wnmAkOEO++3FoFChBMy86In7q6HPz/v3HaG6NEHQMTNhpLLVnMGyGngmTY4JMYrB9BZ6HGUrW2Ikd5Bjil1UrG2J5wJznj8tFD/wPXV2p9r6dBYmc0J6DPXls0MUU0PFxgU6MudiIiMgcZ/HYWcY6yYVM5eoU+xcOFMh9NRgahGTRYz+W0+xy81Ltbjt3052ixjOaclcAlLiJeQWxgvdkcoAfHVizrIeBBMbHhX+EcHsynZmuJS6qo+35y5VYWwwKhmZXbtQQ3FYmhVbVZuG2xHkHsxzQdvDw5h4Ls9dVKYAcbjGA8skzoKU7IOSaPbff2SpZQd0ZM7FREZA4j5LdFo668bkFbbj64tBCbVyOks8eEmZ+VGzIV/7p2pDYvQBu2N3s64BDNedfsTDTt8/Tr3XcjV9vN06L+j4Q2XnH2ZdNmpxH+wrZKHsGGsNTO9eb5gv9qsh4sHDDgg3GjabW2EpufmJOCRwbu0JYXHcf097BZntGCvU9T9O9xGL98/pckZTMfxITtyhQ/mEsw/VF5eZxbmkyAJI3E+XNzawjjFg6un24QlJnxEXcHw6xSAa49a+XqRbWvq4k54Ihtis+xLGdktr4mFBuKn3AuOXQtB5TN1poxYvalpasgUdeXKsVRQnPEDT3uGHbg7OXwWf0McfpVWxJQRjPDX7oKCNidP9D242CT0F8aUIDIa0HR1YXzg8fiTX8qFbmdFr/ERWqBuWNdZzLiycs9jFvfvEgJIRywBGKta2Mw8lGzrG3MudTklgSI7b0XGHD+mWVr6epCdKzBBV3AFixlGh4r7R1IJOPRxK2S9KwQ6nRQk6ss9ukYI5Y8SlEI8/+B3Gc6+gYml51q43Nv/wpJf/CFmCRyrEq3h4q1noKQb68G9u+3oKRLlqE3dXiTZ+6Fyq1rbsyqZkbNN3crGnbVrs4m4dEMKu9cB4/P6NJok2bvrivoRgl3Ei7sfb8V4Z4hL3LRZWohRM0HiFzlsNOsCoQtDL1UTaQ6K84gTW4g71vJLgJ4OD6HYZEh0qylUvU9X772kv6VWLi3s3GtfosHRgQ5Pvi1rc4zKpHM4o+FVZV7wu7aKLu3Pwgilv8Yr7Ki3D4cGisasNGPAgGR4sBinPKTgCgwYlI7Mlc47Gp4fx8iEWcX9yt134HVHR23MwvL4ho6buKJj5uk5O/L/+pmFA9EgBfMKDhB75T13jNTR8fqITyF+q039qgrnwbqqHnbgDsUlCBjfXL+Ln7lRthNvFDoE+lTVpDY0ZR3MO2fl74yboz5+pkHQXgI7G2jkyIfcY5yLDIYtX3Bu7jq9QZ5nRMTv/sBSUnZG4Axf4epp4xV2oK/q9642kvuRiEfczw6VCrx0EHbfX2JV6+BKbT/9Lz4T4OvHZ/eNge1IftrRidir868xArjCPdTgF8aWo0IrFkZn3s10xFfcvMwOH06IE2e9wpe+nenHb/yJMNI3dXb4tdBZ4/qADRhi81/WXz1VJoRewfpe+Ssu4sfM451LDFYtU3AdPD6vbu7JrMa4h/lJo0N+Zi7utnxdvR/GKOxSDceFfDX1/MSgWce/sPCb02sG0JN33v6e9/b0FD2+RROgEM5/6mDZ89UnnXvSSLdNlJO4wSng93oXtyFTcMcD2H+wrNHHHt23iHXz5uEtoeXbFhJGeBRT/n9Pll85KL9u7q7AFfYJQt3eDzs654HDCIhV31gFk1O3sed1PCjAS9yV8Pn/iFXe664wwXs2u9sT8RqQm7s7Bfl9oRwXAEDrjjJsEF2q8R5Mtd2D6MoPnX8hO3DEyjsXhdikqxS+yoyPucHeey0a2Geh00PVYdFgAOjvngsMJi1HccyoqhA5ISflD1+SOgHAuEoKpuFt4e2A7ilfc1+gag/1781Ltrct1GGC1gebGpUbpuzhvsbD695+54fmstb7gsGIR99PDtAL+6Dk51TWkv6L96NVyEOIFODSwYF0r/Eu9PVQF04olslrH6MWjzu8iiPvbiR7c8oiVWoZEi+TrzACd8igZmUFJZCE5AXS9lZps5lGhs+eUl3MuO9Jn0Yl7e1/3n3osk6/395CEAZEoTMUdONE/K0lgyZL+KiFvmbi0qO9kK7nEIu5Td9rol2SZqh5ce219+tvJbopjfnsxKHTB/diVBaGb71xroN4eNFQsFXvk6Oyy/pyCI4I2oLguGL4Qn+vwDCbdmFEWJAMX5+z8wxOcJgSmDrlDAXT5rhP9nIuPlFl04q7vim/6tLtctPRbMwtxN3R1AaNMkB+IhMRd0GJFcblCMor6Mt+fdY2TMg8IMuSf3hPugTO90G3/+YMOobvAYUWvWHhIPLnbXiI44A9FRRHfPf6lZyKoEkKjdzEtGzw7Q6JD71FGqpEo0A3ZNVFLv2DOxUfKLC5xT8gVPntLCmii5GIMUMBC3IGwA2HKVuRebhISd+KU7nexinua4OWa1MBTgdSj4+71RqH7vp3o4d8FhgJCdyEGYWZXsRbeHq47ycdeSyjFPTQaH+2AuPaVx9mTZexq9XdNw7qGdOl3h+9zkQmgDbMrdmpBIecSJE0Wkbh3DPau0WGz0BxsH6JFJh3YiTsFEhL3iupU0sOKS9xfj3dtNme5jmm5mj7Rr+PahWqhO+KWjH6aFnItS8iW+ItldRgOiooCkz9ARzDFAAAgAElEQVTjWFxuUXxZZUpW/uHKmrRvlEaJeyhLLxQgvySB4siS4+nddnZx7tYaWPYOL6Jlq4tI3FnHfew4LuZA7fSRF3Enxvv9LlZx/z6XqYd16Ep4MGBvKfmPJnQv/iVF3+e8KoXucv0iPkiklMWdKTOPOvScndgVY5mq3gXJL2Iipb09h12ZvSKiOBciqbFYxD2/WnhnJiUibg8nzRdDkLi7hfiDUcbiciQk7kmZB0gPK0ZxB8auNhi4OLMrIW6V0+0rVFGRMXBT1W/GhU/LECejBVXsemPzkeGy1dpsEsuJt43BqChw7052tWrk5sJV14COyaLAvyjr5lVWci5H0mFRiPvg6eENpuQhcKnZZmH9fqH5JmUEifu+I7PB0618PZheEWtxBzNtnZE5D9yK/OSsWNLDilfcsQNWVKWwCDWz1sCUP5ji5Fir0F1wCergX6G74MYHFBWrae8Av0K9sWiWc0E0xczwYBHNEKQ4mGYxFBfQMRl5+/DYZGa3SJY1LQpxD47Fr+mgA+lcrZShFncw/ZheFDtx32BiAXYrbhew+Hq782MS90YcCifmZcUQu7hjfJkZGOgrAHuTmFWOAv7AyCD0cH+pt7+6MBHH5XNCBn+rdYzoVywm7lCHfzAPjPUzsLC429u1C9VwQ+F20y9MUVkSV73j4kil0JtIyiLJpq344l5/vG2ZKpsWILUAMhRQiztg60cet10Q0gs/MIeExJ3H+6neuoZ0mo6SuFSiQsNmdXQs2F6ok7WhK8kcBbW4A0dzDjFtmfMHf8G+3qiBJ9/QQJGlD633PfvjSTJwSQ12YWeWqunVtrdyLk2SRsHFfejsKR1nNo5T9gE+nPg+4hAq7ucZBq2VNXEHI1HoQZ7dP15Zk0b0MuQxcbuVTjohXDa7oP1Coj3jcoRSZ6YVJHNCxf3tRA/TbCELT8GylX561l9Xn0ER3BQ2gEIKLcyOfQIT+EkB6KTsZpN0XLw5VydJo+Dizi6oL4e+jziEivt3wZEGSGEZFVJYWobRf+sLShNZhPxdoa7Piwn+ZWagujYNzuUdFvjy8c+XmQ6B8xfos3sHnIi0ADACEHrtOHGvqE6l3h4GBDxvyNfjXWuFSXB7O0kyWKHi/p0y0gAphLMMkmb4o4YXfwYGHMQ8Hhgg3EILw624f59LVMLOjUrhAwIrsrj3Dg+u0WXj2F5YQr4kR/rQEfdLwuaC+WEn7r9pGJRWJPd15w8PFp87Vf7P6fKTJ0o6OnLzSxLA/uWlcgbzGZeMSai4YzLntycIBJ3fk7286qfjPP/8wC/Kul5hgXB2/rej1y/W0Ll2XC4ReH4LtfctvD3a2rJbWrKEeun8rmn4juzdOx1xhx3XGjBoqGR3cHBuCp6BxCdlLoidBxLf1JTFfwlvxrvprC3gb4pcAR2Wfu3xWGdspdhvVhVZ3NmFftR3dmIaX1By0BF3gGI1Iw6JZmJaqqKLEzg64k4Kf9Au0jQUf+ubwlVHxO0JiAz+nV48KaLVzxsTiE7gXnIDlo64f6cRcpIfgQ1mdiKRrr73ducTjwxPcWghYQfCdsWE0RkMLaFcASs1oMPCw4nFXQs7HM+5TEkOhRX35q7OpWqM014vVdG7RliHwiE0xf3qBVqm6xIqcWcZA5kfYjY7duIOBjX/0n+wKEUvGzwMiM/s4UEhgR7pQ8xz9KNiaYn7hye9WEIrOlC2GbpT8IzCsbG4cClz5Xw1izT3v2sadfT3ci5WEkJhxZ1dclROooNRQFPcAc9dgXQuUKKWO3EpEztxN1gYO3eMxoIjoQiaPWAdqIQfGD0IuoM0xf07k7kFGi2Hlgn/P0O6jxNBEK+CQ2IS97K4BLewCM7FSkIopriX1NWyuM2q1rafnpFkSuMQYkodjEjCutkbl2hdspWvB/4scx51rIPt8dNHSEX0cbqPxXGi4iP5DwI3RcSCrVDXFxSr9sHNJqGppakBiZx5KDCjxeG0KNK9NOzscFv+97SX5kwIdbiYH7d1UKgjvOjBLYgp0Tnk3WSPmi3jtYq/KOsW19VwLlmSQDHFXd2ejXeUdHJe0wf6sKDlJLh02Bh00j2rWNvy7fLTuPOPCBaxnwOTY3gBFRoDnRQscyk/f9JIUU0B9bxwd2ceHU9KUn7TMKBOEg1GPemOq3WMiDm7KcL88jN1RzyuXF5htEZ7goD2xnkfwXHmpPB0u0TU7d05lyxJoIDizi6ub2j0Ls6bJo4+sldeGCBGxLygt6/U08kwNeewOMQ/OTt1pw1sW1H6+axaaZOsz9x3RIhvOCm4FEgAozWTOA4k7hNa1c3NWcuZ18AaXePhQXxR+Xl2/zhFShBi3tdP0/10HFQEBXtgCuuQMkvm3q9Qp0PhChZB6pcoqFukoon74Onh/xkxDjwCZpSM5IrkxynIl6o5LlxigyF0YQ7gsycIlzUpPZdNeAYcxHmGLzMDLBQTuH8DH35L3ZZN/kx4YhXT9uW4dK5K6JpVfgxdXWBcQn1M6vWTpJlpq2uFx4Nbq28qlgbGLvYWEB4bjouHLDtAR17DPKKDQrpFKpq4RybRGtjikIVIA0TCDlDFKCaN6QEDdqHztrFJeEu2pUUM7iik4TM17BmLMpT/K8GtBazvJXO+5H57gkzcXYVGFIFhRMShcFzkL6F8etYPtQpPKeqD67s419Vn0Jn4bmzMpDiOd1ggcRe4djt/b6EFEEsD6+rMww7ouMPHIdAHTBzq88J40S3En6swv/RhF5MApINz+RIvCiXuA6eHWORH3WJu9XG6j/MWSQS05vRwCViUIFJgKEG3fzXede9649mTZRdHBHawl4+7hgeLLp+renir+fV4F5jPMHyeutN29ULN8GDxyHAZUTq/z3mSwa+wzaPR5plHHe+meqBOYF9sY/gLn/972gvfQxmm7x+HIt293njjUi0U7+SJkjPDpaTvot+Md8NhocCwJZRn5mEHFObz835QRt4x3070PL3XPna14fyZiqGBIlxyOx5wRp5/JJTt0tnKqtq0Qyn7Qe5t/bzACoa//hHBSZkHBvsK30+JZFdev1hbWpEM9qlbaICVr4eVr6fHrgB4elXWpAm11nFA/Zw7VQ5jESg8XDJU4OPRFij8qaFi3tJcHFA/UJ9QG3CvXzzqhH9hS6iWW5froD3AzSUGcaPFixPEhaxwR3gVDsW7faUenvRQh8FRoSD3UKtw7Z67AmOT9sP3zwTcGlkDmsdWC8Z5Gf/SN+8/dYJzERMjCiXu7Mz21laSVeMKyKsTpDmsEQjFAzo1Mt4VR9zZme0mHiTznorIEFJ2xCw0XCQVAxYBxRTMeFcccWdntnMesV0awGBcYuFhEfLHC4nEgpc1Lo5ULnLjXUHEnZ3ZTrGwUIEYYh0VFqG4LIomIWiRwSIx3hVE3FmY7at1jMYFrFpUHJhHgkUsFhbBYO7xaMsKdYHrDBTeeFcEcWdntsck7uW88UkYZLMjqFH85sEi4IzCGO+KIO4szPY/dGUlHYcEWQSmGUIMKPT8+9O77b9rLlLjXe7F/cTIybUGlkxvXmr2Qc6bnQSZ7a6Kb5QhxIOi+8+wMN7XGlqBsHAubotd3FlEkgGz/fV4l4gt5tPMwJunfTOTPfD3k8wk95jlFbLZEUyRLX0Xb+cC451F4DkFiDYj9+KuwTwApIhm+4P7HbFNmb6lSfzEt+Y8Fhz3VYogr0cEK2RjGcT4o87DLVm4znWwKevePZEWx0KXZ6oSOs5enIvbohb3olq6GYjEYrZ/nhmsO1nmt7Dl8fAvS24bqfgyw10nQbMxEubz8/6n99rvXGsQFCNBvuFU36FztZ6pgE5E2rmg0zWcKv/EtnO9Gu9iYbzXtDVzLnGLV9xZpFsSxWy/e69dkLLzmuAdDt/TypLNfjTnkLqtvZGbi52/t3Own4W3h4a9PTHzeEr2QfgefnUK8rX189JzcjJxd33xqJN/m/TcQ7CNicds9BjHHT6uO/0Al2A/h0Af+Aa+13FyhHOdPFGCO3h6bhx8b+rpBgUArH299F2c4RtNewczL7edUaGlFckUeTZ4fJ0ZqKvPgAvhD3L5h46xV1jgXPzkBRsP9hXC8Y3dXaB4UFq4HA07OyypBZQQigqnhoud/cnDDX5qacni/GbJApLuXCyMd3lP0iTH4t452PcrjfDl4jLbwSTfX59B0fgwYJtvnHQP2RhW8wiNJglpuUrLkD8I+P0bjcRtlqvp4+xiOnGMl5BlpwqJDhW6F5wuOSuWIiX61J12eCRQHOHyuSr+7WvqjhK3wUJ4dnTkEn/KK07g/GYtgIvJ968vaHcutu2chfG+Qt0QRIZzoVuM4h52OJ7po1iUFKlPx7uENj6MT89l6f0qRwwPFpPegvqGnxkq4lJJUtCBVU44FK001mAL43YES5lmw9gVE0Z6FS8fd201FxJfsL19QeC5j9N9xJQpWDzFz8/7icGKiemrFiEzkz00O9eHafaJMFnkkgSR4VzoFp24s/CAXKqqN3WnjXXLuH//uBTan8Lw7z9VpHfBIXBegsFYJs2v5B+Bjwkh6FA41hmZs9sRg5j+6Tu9QQNxXoWYlJWXUW8NwXh8JbLjlgSQtvPMxMNOmp3rjYA4yXSA5yiIACPRkGufSHkVdxYekCIm0rtxu4Vm+3v7VMrR4WVrQgZDkLD+qqKHpQAd7Csk3YCOuC9X1w+PDd93JAL++oQH6To5wWGXqujiEr+RlkHJyOx3TZKM2MTzPhptppO2sLImDbej/Iu7tLl7t51m53olWqR+FtFm5NcnUl7FXcfZi9Edgl569xo+eRsjHj7okEXLXZZeovJDYTVjea8EpeSmI+7EQM0g6xOESEHEHQ3mchh9etZPXNiyMHX4LEdzDhGLdzB534UzFVAA3jfpuXG4HZG4M+XJY7pzniJaTpfOVtJ5YPMjvz6RcinuTV0dTB+/TkG+Ira/mQm604KfZWpNE0dQiPtmcysQYkEpuVmI+8fpPpyDjaAdrXw9sZ+e3mvH/bTWAJ+YlJjDlvcA4M+fl1NwBLcjUdyx+cA3493LCNMCSNxna+ZpL83O9VHkF1rUqYlJaew8zrnoLRZx9486wPT2nOinylJPh68vTkQ34tcuETnUjDzbZqGe76ZIgkpH3H9V0bOZc4t0CPTRcnD4TcMALGJi+kAKcb91uQ73EzHBN/GVgN+eIN6v46Ot9280kqZpJYr7krmpJFKbUbbFXUozft9enjjckk2nc4nuigZSwFQ9gmPjOBe9RSHug2eG1+iYMbo3Rm4urD2o+Bm90+5XRtX4AsqTHz0kMSHFj8yvV2L0MpOpuBNZqqJLpwxgel+/WAvdm+jdGHYA7zBDfALtPRxB59pJxV0Qsi3u0mtmDx90UHcu+FUsnQukQMOOWd52JWMbkB3OpU/xxT21gPxFHAVizJJae7KUov21na0S14nkHZywrjc2B/uaeGtUbWzFIu6rtAyFloECsKmvXajm3/fjdB9xs6j4SDrXrljiLj2aTpdTdC74VVwnqqhKYaohIDucS5/ii7uZzw5Gd2WjqeWX5+J8w3nv3vGDTfjwF4dbssbJpn0XLThh3XckYn98BO7WgAheOV8tFnEHdSYOzmiKO1j9NXVHcft+nRkgbhkSHUrn2pG4s+bxww5i54ptynxwX5yBm94/6d1kxsyRGmSHc+lTcHFv6upYqsLMU1VC0X0/POt/Ptkz8ahrZrIHPkuvA8hJ0EeiuBN1fGdU6N3r+EWqdMT9Lz2TwpLEqto0IKfgiMeuAJ/dO4SWQRBQNtJLIHq26Dk70bl2orgvU9WDoy0ne4csJ+Iu1TlA6FAzEu5cTBc0gex09PdyLoCKLO7BsXGMbgkYdI9HW7juGOJDTpT9O0FYsdgAmvYO/F+eHi65c62Bhbibe7mzKMOSuTexq3WMiF8S49IAxu4uxBZFutYJB5m3zKxr/9vJbhglyKe4n5DxdzxMobmIYUEblrcMHvIk7sNnT60ztmJ0P6x9vThvRosTnLBGzIk7WNm8b7ZYWH17MTh2pZ6FuBu5ufBvAMe5dqG6qDQReiz1jhbeHs/uHydGFNhuaf1xGu9AHU2W5AHUOTQ6rKgsqbg8OSZxLzQwGDfgdkR+7nIB3DtGYrLd2plzDVRYcWcR4LeuPkPSTUR6yI/Z/l2AuIMByzOXkrNi4ZvbrMQdULOx03dxBpXXcnDgGePpuYeod8RcIbs784gHrKrFLzS9dLaSThv7n6EZbkcKcSeOG+RK3AfnEvNyXgzxAOLAVE8qGhs4l0HFFHem7u1rDUzfT/Vw3oYWJ6TiDjgE+mDfPLw1a2WP/stS3Ek5e7KMekeenzvRajNxdyVehbmXu9CTeu4KxO2luOKuUIA4rNTC3w5qQII4l0EFFPfhs6c2mOLd5qiBUTPnDUh8yJnFdOFMBf+94IVdPN4+G/aWF/qR+JbVOwyvledOldO53UtVdP9bGFXq/MIyAGZe80tbSaPvEuPKjV2pJ/Xg5Ccp8wD/Lt9eDBId5N/9MDKIYW3kLO/HC4VKqB0avYuRpGwys+dcCRVQ3FnMyVy/WMt56xETcqbsAEge/73YbG7Fi5kOmsuLFpBxDP+GXMnI7MOTBRqdnBVL53ar2uCDwxDzM6zSMsQC+hPn+pfMxY0hXsiZ4dLV2lT2XUPjgqk/GD0Qt+ntzv9OeOBhtLRkc36zFi00Z974kaOZGbkRd6ZzMnpOTpw3ncWMW2gA/+34RVkX8xjBEbh3J/He3b+xIMSbW4g/nTtOfLEJ3xA3g/4MP8GDn/iTqSc+HhnG5FgrjDxIJX6bhTU2v8SjqDSRuFnanD8u6dqZuNQozm/WYgaEgpGwyNHMjHyIO4s5GSz0oCIgV+9ReYD1/Wi0+f1U76fp/qk7bYImH95N9WCbfZ0Z+O9pLzwAiNFaPk733bveOPOwAzYA8//bi0Hg8/N++B7McDgy7HLnWsM7wvsV2ODu9cZX411f5g7+5G47f+RIkOyn99qhnFDC5w864BREhxl+Pj3rB9P7eHtuVW1abX16d2fe7Sv1xJVT8A3I/cyjDtgegGLDs4oX9wZ+ejvRA//CSV8+7npws4kiCZQMozhvVkEoGAmLHM3MyIe4M52TATvx/o0mRvd4aKAo41jcm/FuFu0DgUDICNRPaCL3bjQydXiXl5kZ+RB3pnMyxHjfQhsENug293IHm4vzBsqHgthHCEVDBt6swtCns/MYjKJyCo7sOxLhEOiz1sB0qYruQF8Bo+PwR+dXpJkZORB3KczJjAz/fAm2SsswJDq0rzufqQkgAZCyIxAC8dwVSNr9fcKDGB1HUWdm5EDcpTAnk0ZwqwDAlg/cu7OjI/e9aJm9EAjFhUv7IyE9hlQB/tAxZvQmgxgDQyg1bS2cC6MiiDvTeDJM52QAU0+qcdnvmoZgC7S0ZONSdEoehYrmgUCIFxhbq9nYkfZZ3HI2oTD1mZGL9B1yIO4a9sxmxJjOyTx/0EHzjcoKdX33UP/6hgy0qhCBmEOq9sez+8ePFcVb+3q1tc0vDiBdVQAcTotidGSmMzNykVhV1sW9e6ifUaWzmJOprU9nOihbpqrnFORbXZs281Cm3r4iENJH/Pp+93oj/wrEBzebcgvjHQJ9eBloDV1/Ro7zDiOZede0d2B0RqYzM0vV9LpPDHAuj/It7gm5xxhVOos5GdedfkzFncevKnp2/t5llSlP75Gs0EEgFB+xus28Ge+OSdwL3WqlliG2NuLRaDMxAsR2SxveLqTrfpf8CF5EH6YzM7Kfm0nWxd1hZxizGmeYmgMaE2kKBabAiMHcy3137G6w6HdGhcqApw0CITXEYLy/fNyVkn3wT76QyNi8+evxrr/1TXHdbZWWIf/yMRVrEm+6gtJERgUgBqugxi0sgnN5lG9xZxrAHVtcTp+mpizRlZ3I5XMomSoCQZczw6V/6OAj3fMm1hsbM4ldjD/n7eG0KOIGTHM5MI0zA9LEuTzKsbjXtLUwqu4/dE2Iy8GpwYVAEQv/MzT7NC3FxHsIhJwTl0qizvymt54zfs6EPxgn6WvVX1X0GL0SA+n4k5BKhZrGzuOci6S8intkUjKjug6IxIcCp+bVeBcxOitg7O7CdNEaP0zf1CMQco9oM++kVnPQ/hDeBsSYaxr29rxfPz/vJ01KXk1IwEINCAijnh6dls65SMqruBt6+DKqa6Z5l6pq04gHgVaCRZiZutNGalAI5c61Bu47GwLBkC/3m5ojbewN1D2cLe9frpb06XCo29rj+tFGUwver2CDgyWO2+DW5Tr4CUbJHR25pG/OnIJ8GZWBaW4mM58dnIukXIr70MjJZaoMXnX+oqw7OYYPKEiNjR9JEsXgqFDeBnevNzJVdrD62TfxWduHy4VLt6/Wnxkuu3Suavo+cvFcXHyb6spx09bS0qhx3LzDRGW5snZpNkl0e8mRReZpPnb1p51kS+ituk5OgXt3EifreSxT1WMUKurxKLN54DU6ZiBTnEul/Il7RSMzz1OmAdzBMCddu8Sf3r6AEJt7hbq+uZc76WQOBtN39AvhQNlBx0sqUrzDAv/UNdZzcrTy8TTxcF2jY7TRxPzI0eh715ktGkDIDiPtqZG7PM1tLfx8HB+cyKLe+PJRz/VqmqPeSuN+64BQU2VozGV5MVIrLWl/zMz7uSCR2BnpUFGdyqgYxAGEkOPLcIRI2RX36DRma4tAiRjdxZyCI8SDrNYx+vTs57tQYgpNzNXy1XhXdW0aMXuDoJQUNCnc47h/p8vBmODDaVFjV+ol3Z3ePelNzTn0u4ahhp19fknCxMJxz5N77a2tOWo2dvYB3h0dx6TWyRGi87AhytVYAxqkqoZGlPn2CLPt2zU0kjwMPt8id+L6+G+xpZ5ao9NmTNkxjHXV4QhXL9Rg2zwZKdjrbmpmbpR/aD4P4uex2udtB86W7f06Lp5FHsSRtJ6zE/bT24meiEPhLMTd0sedURliEvcyOr4sT7vLrrgz9XAfGWYWTULDjiQqhRdfAs8nd9uJpgT/yggjNxcRWxI/70+k8PrVUIC6ib21f0Tw3euNrA9IwZuJ7qyCw+uMzCy93YcHi3nff7nf/PFy4ceLhfD3081K+BdG6ydPlJi4u4Ihn34s7hWKdy/bwF2rD9D7S1VzlYp2uvWWR77/4zWqAZcN5zzWv6rc+eXBwtU9z3rLvHU8jVT4lR34x2M9NGl9MxPYZjTHz8NQ9ba30kn3DWvVtEwNdUbTPVucNzkbqGpoajgbqt/PC/hyd84cEeG1KljZxC4ZHhvuHuovymIURu/ATvQXMTo4yBTnUil/4s7Iw/1XZXxyZGqIeZkxsvji0sCQEPcr/8zP8wckb3iKRJiTeZZiw9+1Hvv+L9nb+Dd1/Yi4PXAusfT8axdqisqS4JmxStPQxs+zuy3zw+mMVzW7nmc4P4nSw/VtHhNBm56l2benBenZ24GZH5u07wlajiuTvGraG266Hdqhma7aFS8l3H1Ms966WV1zjYqWv7HKo7KfL5am8n2V1DTPeqwn3now+eFoh1z0tLXUr3vNbzDivsFIR/0vVS0Pw9nnwU1vpQAjlb9VtaocNr8sCQBrgHX5Zx51LFVhljeDDtEJe+mX4cOTvl+Z5O6Q5fC/Mirubb3djO4f0wn30X/Js9q3tuZgG4DZTnxRk8a3/LWyhsTThpgijiZfH7WSCusp320Wjja/axqK8tiA0cbB5H1bzC2hhFvNrZIOBF7L9ntywFCQmlNQ46Gubjw7GbU7dre4HjkI0fn2rPdhqpONnhrcmv1m2/gNdmDMR8lOXy3QWBls7Sjz7aDvoOaXC2YdDWG8eNBiu5+RsqA7bjl3zAr7zbjvh902XPL8+Tw45b4hyFg5xER5MlxNlAtxCmLmICcJcWAUhwAG950DvZwLpjyJe2pBIaP7F5PI4OGM8Xi0BR7pKxYO93g5XPz2BBHPcu5UOW93C28P3K/6Ls6s2/Sb1mgKSS3bZbXWwAQsbv73AXS4fK7aOywQnlKBkcHlufsup3tNBOF7KQtK7Ldo6GivUtcvKk+SsoohiHx70nVtv4mapjqodr3jJtzNuu6tZK+v2uXy8/uT7hv/UNX6U1XrzBGnK17rVyprk5rtPDJstrY74w9Lyh0fpVve6z+czWF9LaQ2EwvUbe0PJO47cjQ6cO9O/olHOsBYmdG5ZDbIjIyKu1cEMwdznsXNlInbrUH7Q3jH4YWB3mpuTTwLLzrY2JV64q9Hcw6xbtMUsyLzxleEbsbRvfuORNA84NlT5Y47fLTs7UuL4p7VRz6J0qWr3Ts2vard/fFi4fvhozO5nhRbwjB8vaaOjavD6wk0Ec8ZXyc7BkIN/1bV0tdW/4eg0aM+SsEmyte98VM0fa4bV6lor1XVBIve3xg/2y4i0GxYXw79+NukaDs6wPAaxuWiVClTb3eZzbono+LONIY7mOGi3E7QdGUr27UGps/mAtEBNy/VwpMf99L1w5P5aX3SZ/uNS7Xszv55tJpOn5kI3vJ+SPiKu4mxVp/dO0w8XLvyI3Hz+EJ5ftTx66MFNfnlYcvLsh3jOzaSbn/TW8lKT22brt79s0UsLhwhInB3Kn10f1fROmix7aEvyQ3Kstl614f8XoP97m2oullD47InldnOAhgdfn/GPnkZcUwsFAMX58y8w/fE5H3A1NtdZmO7y6K4D5weYrR8ScnITPQ7+nVmgDQgDLSYw2lRWyysHAJ9sG9A94mvUjeYWLA+9eu6cPo951ma/aeb5MHRpu93HErZb+fp3HnIfWLnFqZ98m3nwc936sFsn9qnDf9OJ1i+aZ33Lv32tPvdQBKcmnTHGIvtm9Q1rxTvEkvX+nA263X9ng8j2WI5mgIDzWAkUMXXSGXQTczqLDofTh5lfV25RfE0O76pp9uxongRDTtSQFLo689yNYP+Uyc4l035EPdjlczCs3nuChT73aXAypfEsqJLf6IAACAASURBVAiNDmN9wCfR+kw7z/MMp/8u5H25P7/C6O5AZliAo4O1UaePKouuCAb++8Hk59muxJ+mIjVB4j+cyfz4b/HXx+2g/s+zXIibnZzzoBjapf/pRgV7tbpayl8VT/brwEmleWfliP/O5UwE0ZoH54TnmezXaZPOefL4RVkXOmBRWdLUnTbJVa+g1NuCKKqt4Vw25UPc4zKZheFllFfv4a1mIzeX/fERjFLo8hCU1osXnpQpn8fqROlFRXZbPAxVQk2Uh902SKHTPkux/Xy75v1Q6kQwycgg02Zrr8vGVzWMTfivj9telgSQnvF1E+NX5QrPm/YDnMu3UL49Ye8TSXzjtVRF1z7Au6IqhTdxSp/rF2v3HYn49x8GUbiZZt1LyD3GuWzKh7j7Rx1gVLOMli+VVsxHmnTd6ffgJuO19ZNjrQYuzrgQdMtU9V486mTZUZv3se4//3isP+MhDU3H8aY16vNYLcVL4Fmj+2opzRp4Xbub+nSvqkLY1a3i8XXi+MwxqrfcssP7YWbr/vnZHbub17kcAn1q6o6y61+fn/fnlyRgHnGMcrSBpDCSINnMly2L4m7ms4N+tf6mYcBo+VJ6bhz/EM8rLPCf0+X0d+fxfqoXbIGq2rTDaVHH23NZt+Onh4w574cseJZq9+V+8/NMZ4ptZnI9vtyjesf1rvvw1F4tOqd7ke/NuoYVhGe9r5v3icWTVTq8KGB/yzqO52LWOuue9elZf3lV6jaLnyOAtfqm9HdnupTJOiCEc9mUD3HfZMYgdo+6rT2jux6dQBI7wtrXiz8hr9T4Onmc807Imsndah8vF71p2S+kkxf6/ncul9994vPtmjftMZPhaoxO9zzdUfo3SBb48rDlVU3YZOg2zu84s+Yhwmqmby8GW1qyGE2k8HP5XJW2owNxYofRQUidoQWx3dqZc9mUA3EfGjnJyNGV6dtUj13kqZfgpLFJ+xllULpyvjo99xDTPLz8vB9M5rwTisiLIr8Pp9InQrZK4VzTidbfpnskIaAyxa3LddCu2tqy395tkpdJGFI+j4k5+N3Unfa6hvSwA2HOwX6WPu5+e4KO5uA7IAyml6nindkwXo8zeA3AaK3s75pGQ2dPcS6esi7uTFPrMQ0GucWCKmSNgYuzoBACD2421TdkRMVHeoUFmnm5KVvN5+TlzxfDlJkcd857oOiAUfmyPEg653oaZ/JtiuXrDRnn68xAbX26ms3PpRV/qWnVEVacSponMfozuZ4wVnhdv+dlceDUfm3SzSZ2bplOsHxZtmMmx03Qod52xYmrcp7cbQ+N3iVIteNSojD/COqwwPxpV4UCwsJIiGQw5Z7MiTvTwAOM1qZCExF6wI2mFvzhdh+PtiRnxVJEeQZ7n3WTnQiRs7G2LPA01vDrBGOXCRmnuzNPw95+q7l1em7cmYb4yYPGlzzWF9ltMdVRjzDdfsdbGhX7LNWe9DX4t6muT1dL3w+lvGmJejeQ9PFKydfHs0u1P14ufFESML5D4ONn8qiTWCrn8rmq9cbm1N3WOyxQ6MrSKiZZ90BYGAlRZkkp5+Ip6+IedjieUZ0yiufZ0pJN55h/65v++0/V7Sv1YJULDVPHOvLBp+vlnAulnPIkSu/rYwm6OUsTaGmWPu7uof7Dg8WfblY+z3DCXeyA64YmJ/IVwuJidvHzYPKXB82vKndOJ1lhfq7TidavaneDoH8Yyf58p/7bky5Q8w9nsl4375vJdRf6yuS2t5KujuZXVg7H/EzdafufIYMlRRSEx4bTPy8IC6ODRyYlcy6esi7ujMK4r9Q0/PqCQfYiflcZaohrUAXBOjvH2+Ny4K0ss0zuVvl0jVkEf1kDxpGeuwID9+68PlLytuvQ01gjTmpyImjTx4uFr0VwySXFZC7Xx789mSLWkqCXZCxg5HwBwsLIYcYtLIJz8ZR1cWcUVYZpMM83492FJYltbdkDfQVR8ZF/6ZmI2Fz4c/gy5XkWyYpQhCDAVPxwOgN4UeDD+/LdgLyGpXx6rz0zNeJW+Z7pBEtuKxas9akIDfEeM2IurDxQVpkiSi3dv9EoShwxHMtU9RiNJBil3JPBCDMyJ+4rtQSmuyUSEBksStN5P9VbUp7MKI4E/nEdGsD67GB7cq6YcseTGAMQ9M9jtbz1ATM5bjL7ivXL/aaBnF3JUb53e9PBOn7TfmA2NUqWKxS+yVXg6xbS1b9yRIfzxiXbtbEOEhwl0gI0+nFmKFirb7rnYPiBxH3dnXmMzg7yQv8sf+qbcy6eMi3uTHN0pPJlz2DN28lun90Mlk3xQz8GL6HbN3DeCeWXWUGf7HjxI2LBVKSmoOygHPL1cWuSg7qNnlqq9dZVKtrFdkIk+1ma/avq0GfJtnK0UonImPc6JTVNXgfZbmkjSh36RzCQVyJg9R9M3veGbW5IkBdGp+s60c+5hMquuDMNGVZXnyGGTjgzkMbwLvLIOMbS2UsBPNyZ8jzThcJtjilgwoN68gJqToRsFSVmmSS4fNBmjYoWFmO9xXnTSmXtfGH6rgDsMFHG9ZHnj9hn7DLxEDhJq2Jtq2mPX6nEz3pjc156BnYwDewua+HDZEvco9PSGdUmo6gy589UrNIyNHJzqa1P7+3Ob2jMSM89BCMvoV5WFFTWMHCu4udleTDn/VD6vG6K/HKn4d1AEnx4Xb/nTfO+D2eyPl6c9cF40xbzPMuV0WIoMNjhaG87D2L/ToRu//KAcbAgCfHpWpmVnlqC1c+5lz7XjRvVNf8Vd/B0mQKukdhHensKWFejLlnGu42mFtcv1mAbwIe/9U2J26ja2IoeCphphJm4zCzOJVR2xZ1pAiZG9w+knLWIC4KXlo8p04nWnHdFTpjao/6yLOh1094PZzLftOwHiX/dvO9df+LHS4XY6tN3/Qn080aBoH+8XPimPQb7d/qIuXS0u77wQFcT1XO9PsZlrZrWPbIEGgqMtZ4qsY8cTotiXc/EKAJLCON1XihAHiu1DHHLVr+9GCwoTYTvA/fupH92plk7ZC0lk2yJu6EHgyW/S1X0GIXtPZC4j7WI2/h55ZckwChv6k7bu6mesSv1kXF7fHbveD/FMuOM/C5f6nHdqKKpoayh2egk/qnhp3Gm73rjoX7eDx+lGVNsfHYl5CF4YGCfYUwgUVmHJ1CJv2GE2fYIU2VVQ8PpOyTmxbs7DUpqWinWwm8xDD6mE6yAJwcMOL+zItLtQmK2A1Y+7LPu2fl7Ew+IizlDlGAYnU/daYeRek3d0bjUKPdQ/w0mFthPv2kY0D/7l+f9SwWsiSXFzGcH5xIqu+LOKGTYVnNrRg0FHtrslD0kOlS8AvHlfhPnXbHTZeM6NS24ugwbBjMhp9w3/K6ixauZY7YSCSkzuVsZzPmvj1vftMXQnKh5ke/DSxQlKFOVWHhZHmSpO79+x1pPTUNf9/WdhcGFnvVGeZj+paolKL8dMBWh8ap2N+4lATw2oOSzA5q26Ol4c/FW6cuSgP8u5H2dnJ3+/nK3Hp6dL8t2iNcD0lmfxGxfwjAcI47gqFDiAU+eKKEWd2reTjJ4vyrX4cNkS9z/1Gcw/W3t68WooZh5McvLymO1jlFtffo3JqulqPlwOkMSmkiTMR+lQOMFb708zTTp7HjNS2mT5ryLm7aDwyZTS/gQZsEsuCMjQLJ5Uy5CwbIDAtOHxZB2kZTPt6rbnDel/phJv+K1/m9VLTMjHd5y2U/XyhqCZmP9l9oLHNbAFX0erQZ5fV0X/qLQ91maA2a8A89SbOEb+P5VVYgYqxFE/EnMfIqrieAtcJZXlTvfdsf9dz7vdWOkWE5x3nM9seN47grUsJs11949YTnAJfVXgcM2N2fBT2Cu6Tk7LVdnkJITYJTFAUSG/pFlzRtStsR9mRqD+xQazSzjz1oDkhcv9NF3ce7oyP38nEHYSEGIkqBDRG56K2lpafAuytDVGVvJtd9NeFh5N4MFpll/X+F2y1m75pDldq4uRxASWtz0/KhjgJHKqLcS70QtzpugBlzMdL4+av0wkh1htl1TS6PdWWC4Fbl2c6RglyneSUbZyqapeT6l2pXzDCJ28dPTlSdKnyWFkQsNiAz9I4N8cS6hMiru/adOMLpJjJzcn90/LpaWsc7I3Gf3DhMPNwtvDxaJnDBe5Htz0gPB9FbnU3aM0soU7EMRpaNeg+OmH8/U+fgQxu4ul89VY5+L7WXIya/WYdPYTpVvk+w98Ej5fLsGDu5rhF96Vu+0abWKtp2x9hEHzTxbGaoHcdHnuvEm3/OMyG1vpZXK2rh2dXq4FDPbl8wmoWQZf2nqTpvYxb2imkGKKKau7jKVKVuGxL2xk5n+MnJyH+xjFmySDqzTxEwfNpN+F73itV5Fc4Gypx+bjbRj4eUecSgcPixX0el3Iw9Qdc933Ub1+ZUpuYXx2Iff1A3ODJeFx4Zj/3a4SDa4FX3GfNb5GymLkqOZlOdZrlA/uWSvGS54rNfVng2lQmGzyykwUoHr+kNdN0/wsz/Jahuua9j6eXV2/jS6M/IYZDnGscnMUrzddlcMg1z2TF3d23q7ORdSWRT3otoaRvV4or+I/k1KyhSel/VXFb2Q6NBHo82Y2AmFdciwiVBpz2P867l+mwbeZofLDIycfcnc1ZmHzVltUNe64UVio+03387bq3tupLzZzAr2DYgMHr1Sv1rbSFVP729VrWtk+9LhhOuGQxbb9Ob0EZ4ijvqqx2y3POTzI7zns27AZUOx3eaDFtviLbedEpYNPMVqa4TZdnFNznx93PaqJgxqBo55WbCjerjp9uXbtQU9IOkw5qN0nPLxcMdHKcFqW6Cxsq2eaoyFxFvRMdut/A3GSV+VdLPN6pq4pgXDQRMPV96/oSK4JHiHBYpX3BktmgWRYXTwmrYWzoVUFsU9s6SUUT1eOsvAKYL6xchmc6vDaVH8vrGJGTHCmggzX52fSjHZIek+SQTTTSI3L9fNdtogX7h87BueKwgPUFL+XW5croW/K9T16xpmV5y9nezRdnDwCvaBz/YCOj8Fg64bTHTUf9muDYIO2t3kuCnZaqvhXGnXq2t6GarsMlHW0tL4ZTt+1L/DRPmhYC9y+Ankz81I7fU1kTxnqrMirSyNlv84O8g3dvwnUXqkL06ybbeuV9Nk8ZC767PO21BVTVNjhbL2X6paUebbiM42V72U3AxUu+dGSKPeSv7GKps1NBokls0DHmO/qepuNbcK2hfCq3YbPXzz6CHzgMRpoqW3O+tbkMJ29TgFT+/RNctAZBgdWaYWqcqQuCfkHmNUj4xWMK39sYztF2VdJSMzTXsHxx0+EXF7SiuSx66SR4QH8VqpZSjo7IxWQ/Aj/TDuO4xVBF1FcUWy354g+PDPmXLelwcWmoT6Cx8MY9casQ8nT5TA3+aW7NikfVCZyqazNVzvxEBr9pttU1LTBGP8X0+8GoItDwKnoqkBWgnqH2CsUm6/6ZLHelDtfteNEWAjK2tZ6aqOCXY3vOO9TkdLXUVb5/ZFNmFn3t6ssTHR/UNVy9NIBWxkgF9G359IeddzhPS8ubZbYy2oPNzz7Laoa2msVVug4Hb6alk2s/MeN72VQudW8G9R1+QfBAy4brDSU7vitWDcUGy3BbZ0NVClGE+wxstIZbWWIdF0haLybxZMiDcAZBUc5v8XehxrcW9pyRJRypep6qnZ2DkE+hi6uiyZy9ZAP9oM06juqQWFnAupLIo709gDH6f76DeRnIIjVr4eFVUpr5jkUXw02gyyRXr2TLbTiB9GsqWp7Dk2Wyjq0MLLfXiwGD5U1x41cf85ju7+MYGeu3BgDrS351r5eMCH2vp0GA+57fQ/3p77m7oBFsAPhgh0SvXI93++Rip7zLbfF6zO1Jx2B8teA+T7MuHBwOOGl9Imdc3V6rqCUicK4uOVEhdDdVC32wKK9+1p98uKnYLOOyrg9SN8b6yjBrVkpqPW5LQJ6grGKGDm+xkpZy1cbVDpMH/XQkyUG502g4CCyUx6WBB9eAyAvR9vKc5lcSfmhmuVNWm+e2Zj6q1Y6G7oxDdEW62CH1QBxGDab9ku9zs1VMxIFtboGhu7u4REh2blH+7qzAPTjd/DDWx2RplUpxk6YoCIcS6ksijujHIwgQHO2hZg0bzMvdxxBWD0zp0fQRafJCCN9YHjzUT37xqGTkG+OQU/6x/G+2M+Snd8lNaq4qdTg/eHYHYZmPyg7/Bh5ORsCI6W1vksV73C3qyCsoeZbG93FvUF7D2fdfB4+FtVq8ZB4HDhjPv61Spamob67x7Rzcz3eay2wlXF2UDgFNPrutmEPkwDSFz1UoJHEdQPGOZQt9iXUebbjXXUM8nWkXW4bNw0N5cNZn6aNdVKLngC+c699lTW0Kx1FI+rJZjn28wtn85Jm4GLM9Ej0MNw1muI9xCiZqWmATQzdv3lxqVaiiNvNrcCkzw6YW9ZZcrp4ZInd1m+BhPEf097GaXsABHjXEhlUdwZBZZZrq4vNXHHuHqhZnfsbt6KiZaWbHbH4QUylDS3vNdvJLzpInJ+pAJL9M7za9xiOGt2gd3qTzafs0bH6Mr52S1XaxvNPOz8W98ESyWckhWLvdgIM1WmLliD46Zb4ksKesptg5WuKqikoA2anDb+sl3b3kz34wPh9vu3yY5Hkdo62hqjPngz+ckBw+dZLh9OZ2APAEaFPOm+EQuEWyIxn9ER9w1mc8OCv1S1QOvLRThRpcNmOE5+SQLmJtvQlEkaBgDOAs8AOr01Nmkf637H78S8zcIaTIqkzAMtLVnXLlSzDv7BCEFZuUmRqfAyMiTu1gEh9CtxlZahlMUd4+GtZn0XZ9C1u9cb2R3hRZGfhLo3Dpodr6QiBbPZB/sLN5rMrhCOS4n6W4PKWunuysO2rK49yptdNXF3xQx5JQ0d1mV+lmw7voONRd/jsvG8h8B552zbWQPTxUTr7T9C0jU8z3CKt9xW7UBi/z5Ls58Nc1a/Z+aYJ6NCDrhu+EN1NmYD6WHFyz8eG9qcNwFZNlvOCq4QCmCv1SraK9X1Xk90W3rPDlhfjXdvt7Sh3zeJPLzVAjYE605n6um2Usuwmkl6azGygskKWJlKtidD4s4oatgfOsac3OnvcxHmPj1jv071WZqDpHs4kGKNdz0WRETcnqGB2WnNw2lRe+P2LJkN2mNVV5VEsYuphxu2pbaDw9upHl7+4se3W1drGcGHFrbu3k8OGLwfSvn4b/FsWODmfaCk73rjP10v59Xex8uFLwp8JkMZzy8X223+XUXLUk/tYazpm/aYLw+aibfmw9nsMR+lnSZCRh6MGHTdsEpFa5O65pAw901ZAJR97VzEoej4yOsXa+HDeqPZQJuiKHtodNiFkcq84kTWXebrzMCnaTGsDGfHKsFeFUTAQuVcSGVR3BllT11rwCAa0bupnsKSREZ+8YIYu1IfnbiXab4ufqbjLSTdRSvmhtU0cQj0BlFeMje1ynONGOgv1LKlMtYS5qZigKbmrIrqNOwzGPJRRyLhg5+DiSjln4rQAOv4dV04ZinPRn5v2fd+KPXzrZ+r2D9eLYXHwJu26JfFgU9jDWkpl/t6Yx01Wz1VzIdycrfy9BGL6QQrsNZf1YTNpmbdsTHHZsttytWYjOhz3bhWVfOgxXaKIGKyAzx+/pobYaxQ1Xt6/ziWZE7H0XFirJW1sq/UNIBDuYf4J2UckJD4wmB6aKCoviGjoiqlqjatrS373Kny6ft0X7EIZY0ug8SfMpVJVYbEnVFIyA0mDDJTF5XN26G6Tk7QZHfs2xm4d3YBjn9EsN+eIN89QT67d3iHBXqFBXruCnQP9XcLDXAL8XcJ9nMO9nMK8nXc4eMQ6GPn723o6vKryuwE3GptI9ZtRdLBXWsdNtGsw9/UDdx2+mvZz6aEx8aeM486V2nO2inQG3u68yn2/fNHi99oYvHycRccZLZ6HZ2m7rbDh1UaBoI8RkQEFPll2Y7Po/hYJWCJP890oXOEbNstRwW/nxxwFZt9/Y/Heg9DlUtSyc4xuWv77KxRXfi7niP/nct92xHL9AhNTpt48T5hDIf5uWL39OwpZjkr+OnoOHZ+pAI+7DvMMiElKZ+f9/d250Mv5o0aiWw2twqJDu3vLRAxHhRpMhBBgIhxLqSyKO6MQkJuNGUg7sXl+HD+IiLK69ypSFohGNlR68jAZj9yNBr6xl96JlAqZatZO727Kw9zfQMejbZgLo9C8QoL4LnJ9/UWYMZ78g4bicrZxM4t8JicjaSYaveiyO9d96xnKuja5C5xTqqwBkz1SgdJvTud2qv1LM0Brvp1Y+SHkewvD+cXfHyd7ABxZzHvl8XnL7tCTR9Gctg7lSVzS5EbmjLZdZPE9Jg3E91Y9NBA0XLZ81NXn4FFrKPJFgsrsOhZR3Vdy0TcZSowpAyJO6OQkIzEvaUlW7zizmjcgENysQdK7H920d81DIVm/W5ry8E+QKmwV2fRCXt5Ho1xqfuxWVc6lFenYppu6Or8arx7rYHpak3DfzykOss8Ga72rj/x6+O26SQraZ5XajyNNXw/nEoMiAaX/LbrEOurDlsY0PEPHWMDF2f+b+hnuYGxIC/2atC+ECibQ+C8m41zkK/osv7s/nH7ABK/HTpY+XqyixfCSNxlKjCkDIk7o1sFT2P6t2dogFmACKFozE1lsENCPT/HdoHHcX5JAvRS/m9WaxnZ+v2MwQBWeUbevKMLWGqYwT77gnSyB/vyT13jD097eTEgeZgKyFl89lQ5WHlL5tasNs89TbWNDMYIDoWSZjrB8vNo9Yt8H861WIxMBG16P3x0Tsfb33Ye5L2KeFke/DTWSJQj48I4iwJY0309+dh8HWan+0cE834VJQIBxqPRZhGddrZZWMNBmJ6XYuaHFM6FVO7FHe4T/dvzz+lyRgcXipEb+4iDkuj8EWbb+Yu3O3Y32OD835i4ux758QoUI3h/CC9myMWzlbFJ89bZ0/vH3UL8sc+19elP7rXDIIB/R2tfr7/18esPgS3mllj8bhiGw2X6hM9GNTDTpbVgVey8KPB5nu7IoRyLlw8nj368WMhLNSUW7vqss9L76SxrzhfniwU79u68fK4a00Es0YJXWACuBYqi7K/HuzTs7ETvuTpOjky945WMkLhLV9wZhXY7f6ZC9GbBj6GrrIj7da/1xroLYr8ERAbzB4pZMqf1/KtPMaAH8oKpNTRlVtcexT5XVKXWNcyHOdVzcoQCY5GBF+6LN+cxtOztVW1ssQ1ePu5St53tjSqaGm0KFwhXyoh9omnUW8lI52ezcQj05j3RWQCNZ6C/EPOCDYkKffeklzcbw0PP2UkUcRfU5FgQlxKFxF2mxR1EhP7t4b36Fxfajg6yIO6NTpuxPKg8/PYEPbzVzD9LGB0fWV6dSryEnftDeVOrBxL3XTpXxevnrye6eZuBUf/fdB/u/VVc6v7f1A2oqyi3KH7qbvtWcyvsX2MddXGtjEeIyGn39ds1fi5d1nV0OpgsfFZdx9GR+CUMoK9fquXle4EnBAz1DF2diVtq2LGfybx+kVkwcGqWq+vTjwoJrDdm4OixBIm7lMW9rU3ML1QZvc6VhLiP+ihh4UT4AWP82f3jmFcihrmn+4UR8pil/hHBGrbz41w1GztQcN5PYHQ7B80vKLP1m01Ue2powdMRunRKVqzQWmpsygR913f4OZpW1tDEYh8iuKLCYfMqvlBf/K/Ql8zNN+q7kEjzCnX9onL8ujbMDuBN91l4uV85X73RxIK0MTDNeMwPzfwK9MkvSaB/dujsjA7OuZDKvbir2zIwBOi7Qm41tzZ0dYEmbuLuauLhZublpuXgQNxMlOAH/4rm+HzOY/0uU+VVhFB8ZVUpoKT8JvYfOsb3bzQJegflttN/tbYR71+wv6x8PLHP9Y2ZvOyXwNBAMRR7x96d/LsnZx7Q/lEzqzQNcS9veTQ0ZcK+MErg//IvVa0jltuIwVsQEuWGl5KH4U+DYKWmQXt7Lm86Dto8DHAFPbNzC+Ndgvz4v4lJ3At3NiRq/s6CoXBmuAybmSFyrCiB0TyqiPIqFIdAHyTuCiLuI8Nly1T1tlhYwRP71FDx+TMVg32Fywmel6BQX2YGiLsTE32JEpOSZlBcHOc8NqRabzXXJcm5sUbH6NK5qse3W8EA5/++riGD95pUKPuPRCSmz+cnMXaffaPAm9uB8fj3OS80nIJ3HM/lPR5aW3O0yZ6CS34EjYLCbDBe0ElWKmtHmm9nnbwJwYhS+81/q/6cwTPzdBu71piUMZ+erKA0ceRkGbbWgQgIN84pFqx1sNlt/OatAWgqw4PFglwG4cHgFRaAvWZnwaSA9bG/quiFx4b3dec/uNn0Zrwbeu5sXJDpfhh33rveCB38aM4hQe7w6+ZiKtCEaZ4/zoVU7sWd0bQM8Hai5+tC4SZ6OK3WIV93Ck8FYgEYRZPnB/b1M6K70Oa488YIU2UVQoY8fqBbwnAYdzl2/t68rBp0+E3doJFvrQr01QQ+75qistl8dVW1afy7qNvanegvwnxp1hqYQv/n2XE4DF2d711v+vC0N/1YHLYClp+dJspXkcRLjH88NtjwecXAExqs9ZuX67DX6fDE/fefauL7dn7Onirnz3UHNvuj0RZ+S6KzMw9bqURkV8wueHLAB3hysOsvgnIhHSuKF7rvu6keDXvyde/01zQhy13WxZ0IabA3MIFxmz2ZW09PhNTGpynuQBZZCG+MMR+lArstrgaqq1S0iOfVc3IEg2ubxbxJAp9vXK4lKiZciEdoAGnJBeG286e/hIWXO1hAPFMdpP/RXN4r3BISsMjOj1RgnpHrjcwH+gvBhP+TLxYHyDqvnqGor8a73072FFcka9gt6HLr1TRPuctBXC35otJhC7+z45I5VxbQSl7+GWhL47dbqR1R9hzcffXCz/eZoPK4N/ZwWwUtfYDnB291K+sXqlgyGSKXCV2VlKj4GDncPQAAIABJREFUSNLdQfdpFgC9UJW2uIsyhYdBmkIPnvNjV+p52zy9186/8IeHKHPu83KprE1cwPn/2bsOt6ix9vvP/Fi7a191LasivffeO0iv0ntHeu9l6MMAQxl6B8WCgKCAwqrYULevu+73fft7YTTETJJJMgMDyPOcx0cgk2SSe899773ve86QzfeeWlcOX8GxtpFaE2usY2ek58Ugv4HYGSJiwVSt1bB9mp49mCB6ugoRTR6pzxti735sBxJHH2bt6Xx/vAbp7U7+HjBjQLtuosP5o0oawbEBEAnCqcZHK21R6XcwktURe27sgjr6V20Ir2BcVuSMTeCBF5ffQMZaaE7A7MhGCy40bKx+fdEpb/JpwQ0I+u1SG7IPL7W2FR+TEor7WWlDY/RWLT+tlgGIilTSc2OEfhbCc217/IHnv5SDs91UyM0md1pFTLggWkrbK60Mbdrpuruug+0hgYj4c8dgfnXkJJqoAp8mi/N8AzZcQOCckR87OlTOzyJHAEENOgRGqo16uouEloyjd1NxARP290956NwJuAe4/7EhrIyUmpVlZ0eBrv0nsyoI5GGejl7uT86KxCRRnNPSjU0JgxGov7cYvTAKUxaJk+P2RbPleWMVnIpTv0i/5/Nc5AXxAXM7aOckDQDeC4zlSFwPjRCGbRjL0cfkFMbjfhaovKUlF13+xriIaXmOUJMSOmk9O3PydvWrx60fXnfzV1r+ebe67D43yW5uzsb1GJFa2ySgfgO75L7Z5E5LfgAXZm5OtK6IaVWMr3sIleiSavhDu9U5LbxtUgSWHtcgwkrNjcH8HugS7XoKMwx+5Qhw678UBDEwGSy4cA/2eni/Hv2byppVwwS+jAwGcWlhyJYsoLouDWb06980NwZ38m7gZDd7vy42dT362wRHi52HRovz8go4GzOH5Ve3Up4+akIKDvjIKoyz8CCzTwBGe/qoGf1e0nJjEL0K5OS4tcpadtaCLUQU+QFa6i5UwE/wpYhd+YHNJndRMs35yPqypdIClc0cIpyWxV91wUVeScJrgqUhNGDiXFr5Kd0zODaAL7IqCHTslvilGgERgBrQizNSa16pH950yxrj1IJf0DGw8V7PsCxh3UCv418LcOdycwW/C3AEjAT3blWdWmOK/ZcVecJcWHeBYMHpjKfWFdx3BwQ9M1EHw7MgPSGJLrg4oaIFkyo0lcMZKKrIQcyEW8Rk7k4j+xADMZan8pGaE71BQ8uucBg+Nk7yFxfP5pr2StOwvkWwX0aVmbwcH5cUKZE7TGzv3qwCYhW6fiK1ls+AbH7yeAVIihsGyVnrv+fnMOACYjogXOTHkcEyvu8SgqH+0vlpNhX7MYjl7X3XEy2AI4Df4W4FKR4mKH29xSdVVvn9iLTi8O7+KgW0Wp6/QGCTCwS9ONP4aJJ9VEl4+xFoThUV1Sno38DES0/AI54WRJH8RcqnxQWYylC/Oi09913JX3xsnFkHEQK/5CyK8I3wE+WiakY4iZXr30tTLz0vpqYuvao2TQ4vOhYExOAhcYHIj+9+bEfXm6BpurAsEfl/ZFKIpi3+kquimZlf5HqsBKPL7P069Dm/lVeHOA7ukMrtCS5ZwgRi4lbV+Gil4JIooohwVkZ+fHMVg7cXnjid9tHGD9j5rQheEAzAmNoCKiivSkFvhCJtjOQjpzV0kE1XIoTGi2TW4YDKxRQRHqHetC59nI4T065ZBz42zmaPCH+86pI3FdIoMbisb/TrcocoF7UkXeuki4OyanNTbOTHIwqrqfp86V2ptVRFtBpBdHIIUrB6UlWru6uI6LQQRGOe9thQBXqwOa+t/8vyJwNlZoDPdnYUjA6VwxwF94CTVxX6rXfXZ3DAsbhAFLBLrWkyv11qg+GTqGyYBF6hPnxDXQyISk+l1gaS2voMoWcW0WYPvhHdjU1cnNbQff2E3rR712ZPDJCIQfabxVZcMQ1cXDEwXphuEPGKbkFe1L+mULgEehaUri+w8DNEkR8ra9LQGQsyRiboFZvi8htE7Fxdl6ZsboH+DUTrnMYsacP1dB2n6+4w66d4n0RFLobXHOAkbE4WJsPy00WlFXcVJdGA2QxaQgD7uOTV+RlNwLboGRsf8ISDSaeq8HLhXQh+EAN0gtYVAyPoEUjVBQn4dXCi4OFEHa0VEkEcVlC/M1ZJ97q7BtliADwX6g9RlExzDP5e6UnOjiJ/hftlVP2j/H8RLWbnQ1BBVxQ0NGah5fr4GaLIj4JymO3t+cj/IR5fnGnEpV1de9s6Nk44hklqhqvjZs4IAkJC9OYqBiFxga+etMYTzP1zd7XGnE/fsjvroklI61JrG+nvn/KW57m4U0NjZ4c7NytPqOAktyCAWRT5wvp36jpD/aVIavwRRQ2YNapYWpB8BAFnTWVIRDx91EQ9FMPgnLbe5G1KdU8YUNlbQmDjFyhxIt2K5A7PhfpDFMXFFBe/v+iqb8hwD/FSNDeDaQGcH3rCVSNjO1/X4rKkV49bxHgtosVuBmhtzcP85t/VLaBPfXj6bu3pLyezMG9A7zQ4+rnNTNThTroXHnAUCEq3ERxX1oTuTTJnR6O0MplEKBgm3UAcEDni5uFoKsl+tSWsJSYXSWog4LlFJAUDp8PoGJsShstEqbkx8GCRxTpcaNlao9XiBAEfh0ugGw+PV0BUwYQBTCmm7mA9zZnhn3e90B9ppSfCMwlLCPptuZPZFfdIq1C/lktYpMSJdCuSu2cUjZB2zxXlv97Qc1TZOniz1EYk0kQX6FpQPmCajKyoQOQuGFihU2uk1mLquzerBAUMPEO9cZdfMXAN8qQ4F4H5vpqwsAvI4veXXegEeTRCdC4/cZI8224OZhzPxOhdwhSaovG9pl5lder7Zzz4l6hah790tirxJmwALq9KIVLr5b+72ft16Mo4G2+Xyds1FFtpMzfn1RNxhkcfV3qbm7OvBXiQLNQApxtcsy8qT3q71Mb4Qn+jpLCpwC8uQeJEuhXJPTxN+LYMGisivDNRAOwJHDQ7Ucfs4xPj1RDtQoPDdT8QHU3NOYiqTHZRnGCpqrm7E0YCzD/KH5ff4T4RHRISrKYw4hWzSBE4PJADRiOIQ/NLEnH/CmS341dpxu2+d9eS3n+ZMGUWaCunMH5xpjE0PpBoMgS0PnOvDqZfaCNTeE1BMQF17AygPIzKGzqTCs7vHuyVWRCHLOO0tebFpYWhj4cz4+azCwImxBAB/PF6o0KxlwvckcHS5uacqto01qqPWEZPZ+Gj+/Uf3/aKfnIgGVqtF0hM4kS6Fck9MS+f1nN8/EDUvU1aePW4ZXSoLC0nmr86D7ESs/PAbZ/T0n35uOWX5U50iam4ABF3eMKndXAFU1PcgiZWTSpmZTY9Lwb4HbOZpmVnDXcrNOlC1coSRhHcP0GvxiQ5UKF7mHRP363lcnOJDrgqL9dosTM3WhMNLpE/HH1H27GhCqLJjdRamcL8NBvGeHQ4Dy8C5mE/P+8orUzG3f9EFjrCE4PfP+XlFScgKzx+kX7AmOiDFc3MOjsKqLTG5KzI2vqM0xo6onS9yprU1tbczezs6N5Kq/cBiUmcSLciuWeVldN6jhO3qjbojUIfgJM3cDJvZEU6B3ioWFgIqowxVi778GZ1onfFwOjB3VoIZ6DX0frWQnFcWRNdWzg8UCa4BAT9dqi/FKN2zWnM6unGJkdCvDY6JPy9FJffIAoh0SGh1Bo3EUXlaMAwAzcjmHCNhryCXI7xD493iunHsO05ZUUyIQpAblECuhJNEBCPw0B7Sm19sSIsPuj5PLersxDjtiGI89r6q8H+dANac2a1pkFgVyY1NwajVIMLt892vqK4Y4+PfBIOg554f7z6n3diiMepg0hwmAj5VVUSJ9KtSO4ldfScEgd6S0R/eR9edz+cqGtvy8sqiPMJ99VxsKFYbQwcyviiSN/LKoyDH/t6iy/qEhoCYNRxqQCt4gJkiluwekHHYGK8GhNWAwVAyIY5sr09H7HMJgJ0fjShoKFjb5NX8sU5I5NCyFkbQVtrXmU1jgEsGoekFTw0rwzZbO/t1hg9IQG71FqZglAhCh2UCKKsscnUnRp41EIrjKTWJnnvn/EEhcAy8mPRCzt8oKX/iQDRz/I8lz8hgDMw7iwlX5ZSH5RT07KzCU0IrGdnPrpfz1h5myKAZKg0VAS1Lc0SJ9KtSO7wXGg9R3i71F/Sjw8b5U3NdB1sswvj8ksSguMCTV0dL+iS5Q8IBeMgAp1drmRuDrPsv1Z6iBIBoT+LuHpDVF6oaWsFjwWzcgpxOqYzH5JTf3i/HtdlmyKCYgIS0iLQv4EhBAZUdA4+EW4OVxCpKWCgoihbYHxxfrvtuI7bnVURFrDzIVgqeURRw8DJDvdgCNh7e4pxU48EAbHFqyetglpyMGYLioBKrdnmYX4jmH95f7wGOSG0bcb0GpEUTHLnMKWGTh2eFMzhZMGcg7qQL0UAydBq6i3dnRIn0q1I7vBcaD1HWuo/tfXptE5OBc/maChUoOEfhTX8tfNxffyg4eXjFje8VRqKcS4RSNRpLDyu/fSMhx48YOIyN8XGRPTntHSB3xFtMgYIjPHHrCcERF+HuBJjDSiIo0qrydTksuMYGKnIFJhcfOi4DZZrEg0uHcKzZCGHe7AXjLUjg2Uw0xIMqw/Lq8HASaIdhMEBWdUHd2ud/D0E/2Tv6+Z03V3w9xiBT4gPMAMDvG60yQabwzzJ3daHsDxCEKuj3TW7qBuhzc3ZizMc6nZLRACSofVqekcGJE6kW5Hc+0YH912lUS/gE+5L/SXRXTujgk5eAbMWQ8SSDn6u925VtbXmYRJXoOOVV6WIeLdEuGJg1N/7RYhneM2Bx8Nul8EtdfAKKmso6cngAgawzo4CtNqJqpXlxHg1DF1E/qt8nNfWBxZjcEVdZdlso4tb08Ov1fK8tDyZe6IgYAyuqUv/7UVnT1chkCmyDo5uLcDsEGujpYGEIrcogWhuFJsSRuUMMLvCtNjn81z0SqMoSe5Ch38SHFXWNHJ2gG/R0pIDLQ3CcJhDwGyV+tWBZKhfbktJQm4tch+mKQzJ9waiiL9XevZdpVGMQAXJ2VGMmyyJTwKERYIOeVW1aSQJEqIDE4sVliXiJkF6h/nU1mdQrFoSBMwAYOjCTOGNnR1KWDcKSpNIdGhF1BVRUpQL073cujWUDGBKcU2DrNZUEEDr46OV75/xsovi0LVIEHTbeLmga4ybmnOobHUigIlah8BAjoBkKwhBeEIQZs8cgn1MEPCBaUkKkcmlKHAO8KB+A3ynWYrYUpKQW47caQlD0rVDUrGgVCdNHWZuDCWq/3zTzaCQGuIjtHnChuKgrJpvBH7MclxZE2YYopwcRincHCFNWysiN05x4ZC0grmqTJLBJa7l+blNT7MBWg/TvXSU5jpMUXnSy8ctgsG4mpUl8BT6N8CqVGRe0AiODRBl4IRx5efnHRjtyfb2fLTGHGNrbABb2E4+A6TQWc4FkqF+5suGlhKn0K1L7rS0w/ZeVfkPnS1NsUv+iyJeFhjj//4pD2ObR46jShqPJtlot6NdiIgzsvIGKjIhOpfzjX9oszw/5XB2g2j9vv1ZP+0rBwjccQlvT0Pn3q2qjPxYEtkGNHDF18jBQBMYjZ7uIsHNVcwWEUxDGXcTt2BxquzxMUHNWRsA9LKXznQf6EviFLp1yd0hkNIaH4Lnc83UGwr1LSYi7JdVlTM1NXJ24MdHQM2MW62ttwvQ9NulNloeCOe0dJfnuWiPbKm1KFvsHeCrxcEriooKsg4a0jfEEd3ftTsLw4a+CqEyDAku6uqXVabQjcQ3Ey6BnhCgYNboZI1NMAt6KSKsXuJu54oCCMioZ9QAvdA6OdCXxCl065I7XQWCm0MV1BvKYB+NlNU90irQr6CZhiYEllTcGOgtefqoCd0s4Mc/XnUxbrVpa56o0Hv/XdtfpS41AyMK9Ci0nIuWnTVGnncXYsRJFQ1tG7PKsnB2VRQRSopC0zP8YxO8gyLcvQKdHbzs1S1MjinSkIrddjiurPnqSSu5ESsf/b3FjLsJ0CtdxwVyWHk6U7/6Tbw0UBJsKe2BLUfu+VX0clroproTneeUqra+k61fpF9uUXwHr2B+iv1xZWML4Xp7PrlhhMUH/bkmuwGTWYqJAapWln+87kavz8BMU1AZBrBfQf2UvtFpQ+PTRiZnjU3PmpqdMzc/Z2F+wcryoo3VD7bWl+xsLjnYXnG0u+Jkf9XZ/qqLg6yro5z7te0IeQ9nBU9nBS8XJW9XJR83ZT83levuKtc9VAM81AI91YO8NIK9NUK8NUN9tMJ8tMJ9dSL8dCKv60Zd143214vx148N1I8LMoxfh09ebGhFckx9ekprHoJ4bk4kJ8s6KeSyrdVxLf0DFEwQdyRGBss8QylpdP/8nKEcIx9/vemOSwtj5ogpiBtZNDxD6Ca5b6ny1C1H7nRT3XPWKjwp4p93vbjqnYGxARvK47h497QduYEjihrRySGLM6sZWtBnrkddF7p4auWxGoAgW/nwcYz6BwI5dyf7ooRr5Td2QQuF3UWU3uPLruLuYj7vRzVm+dWk8T9umx9rmRlpkhxmmBCMHjCEQi8mAEYdGIRgTFLydYXhCoYo7Qg/WmeAEQs+ohniA0ManAfGOUXv1VNRHymlSQsLYC4rKEiHC4hXxNJfZifqSEr5YAIxfbe2siYV+o6yhQXJSNDYmE39onST3LdUBdOWI3fAYQUapla0Ut0BuCWptAZzMUJQX1vbziY5K3Kov/Tpo+anj5rKq1JIFNXDE4KezHCQH+/dqiJS7zogr67k6+ZQvAMp3qsqJYqTxedWn+pUxucJqE1Lacuv6C/tvF17b7bx6Y/torzZX950P3/a/nCBe3Oa03Wnhj1cUdJTkt6eH9ecE9aQiQwAWxYwQhxWIRThcAvysvGmWljkHeYjrv7y3/d9ZazkIwR+3z7hfj894/GP/PC6+85YZXFZknuIF9o7TIrmQi4t3aetlge5FcmdlpOqlp0NrfahbY9zclrLcGKEu7BMAH1H2/S8mJ6uQqIEwVsjFYh5wilVbRgPWDWpRBovBxQ1LtvbaoX5mqWE2RbEisKnkZ/5FAgxk1eQ11VY3FMMzFg7WM4ZZbXcrOTdqem9Vzd0nw3sdne2aWqu+dFCy9zjVkE8WWx99rT99fOO9y+7fnvT89c7/M2uD297F560No1WYm6GfxtJ3Fz/mnSSe3ZnJQfVZcQ1Z8PdlvWVNI6xgHPHphtm5rnLz3gf34tax8gAH9/3vXzeAQPAyBS75WZVaW9JdGO2GAnajZXsVZUKA0lgXXoIOzOiIQvOn8DNQS8xAeBP6E/Z5sVeIs1GhckiRaVfPipr0sT73F49biXaZYWWz8ErhX25wOVn3XxzRfnFPJf6tWglT28p99QtSu5mXjQSFg8raPyXToUxbikzvPJbwzTGc3EBI6pOGBEoaxaWJbI5WYJZMZf1DWfu1SE/ntbQ4W9elVWmUJEbO6ikeUxb/5S+ES7OmphedXFQC/QySgxGOj9wAZ8UgCXrhsqBxxtGKqoHysv7Sgu7i7I7ClPb8jH0wUcCNzemKRtGhVB2BtDN9do076pUd1YKXc6CEBvOA1fJ5hUWdBcBU8PV4R7gTjru1PRN1I9MssdnOPcfNs3OcxcX296+6CQaMLYgbs9y/GvJRimAR2UKhP/wSPO7iqoGy7hjlTCO3nrAge+7tNQO3/fDZx3zP1d6f37d/Wa5E6YRT5baYCAZf8CBg5vHKlkDZbmdRTA2e7CS+ac1iAu4SFxYxxhLswwlOsjR2poL3Rb3iqaujkuzHMGPjI+w7lNOggQAsRzG28ciwpYy2Nui5O4Xl0Cr9dBSdSdKdWes3ysKlog3eAWhYGpaU5cuuGsanhiMqd13CfSEiB7OX9+QSWRLzQCnDIxk3Zz044I2aCkAwsxQdiaMATBCwFCBBNcQ9QNHr6A4a2eD1V+G+3xgPIPp0drEqEoQMNCW9JRk8PJjm3Jg7HT/TNlCYRAfCKH6Pjkash/UAc1P7M/nv+/7FqbYOYVxROQutVa4m5EXI6JZB10l96AbyRInz61O7qlFxbSeKZdLQ8W/hiBYFkW/VxTQKiE5q6GLa1qNK+gKUbx7sFdbax7inSauGq6DihoyLg4WmZFEfGGSHHrZ3vZT+G9qphXmi/wpqC4jg1dQ0V/aNl49OtUAsSQElT+92q52ieLFwP364PqMDRo7MbDJi5X3cD4ozIaFMUxcHF2DPKNuhIj4TH5b7lxVLW7OTs2Jdgv2UrG0OChHtapD3tTs9iiL8aVJvGJwkVVWLnHy3OrkTlf4l5Y2JGB5jrs4w/nxYSNg8nZ1f09xAyfzIVPPPBEhdNkdA5hhEOn3CoWtt8tgXymRIPhheTUzN8fA2IDTlIvRT+oZaoX5rC/X5sfJezofxlPDP6ygHpsTtY2WRzYZHXdqfGuY7wbTo/XcmKvO9t+IKbMQAwiZo5NDFh5w4F+ptVJVxs+ktTX3igGN+m0ixKaGMdOGJJLgJgKH1yZx8tzq5D54a4RkwiUICBA2qMstTDdUVKUERPsbXLOXMzH5QddQwczMzM0JmktfT5FYHGFq6mgLEcP3paV/i4bhNYffX3XNT7NLWDf8o/wF7apPqmqVViZ3dhSQaHhhcErPSD82EGh9r4yQQm0tW+tfX4iU8rzzsLTURitav16bFs7JSmrJy+DlF3YXVQ6UcUZZMA3qvFPbe69u8H49zIfGH6xuYk8+ap6Z56L3rgtr0pTELa/EB3+LNSgm4PGDhvySRMR59d2PPMZP5qKeSF4LaIwNlTO4AXtfN+qXOCCnPnhzWOLkudXJfZimfJissal4+9v8FDsmJVSoj8cpNe2cwri/mMrd8fGGpv0uH/zqVjQUvV1JctfQOKOhAx9H/OAXZxrj0sIwgu/A7LP36wZ6S6i4Y9MCDCePJtkSp9Stg/EZTvMoiztWiayew/8xhO5ZmVI3VD46xQaCXnjS+tOrbn7uEPz4YJ57b7bx1oOGoftsIHeYAaxtcbNqBle3uIt6inM6C2Pr042DvI4R5FCJAp9wXy43N6cwPq8kYfpubURSMNqDV9PWivFj+fi2V1w3eUhe/ekjJpu6QCzUr7LVJMO2LrnrONEQlNhzRflPEWQA0Hhwt8bSU4jPJAYQ0cNgIMpFGeggHlXSwDhZa4T4qNBU4dCwsYK58/ho5b9re0eC+ge+Eb4w9izPc4vKk2C+Iq7OJrW2CTwjoXWwrQZRcvOJYJsfqx8boOjtctHS8pi6SFLJfBxT0kTn18LcsaUl99lcc2xKmJad9a2RiqraNEGXqIz8WMaPZWmWw/hu90irXNY3svZyjroRWlOXRiv3EcGfr7v30Fk/MHT1ljhtbg9ydwmjZKuGgFZhAi4+vO4OjguktRyEAJr1zL1axpcmqjyi0fe09KSd7A3iAvfKMsl5OKelC8HXiwWuioU55k+H5NShA7960sq/VYjO6hsyb2RGwgQcejjE9XLUXNyIoGhmZgB3jgeYPQTHBogiS7ItMPWoOaiO6rKMd1Xq9dq04PqMiIasIFayR1aUUZiPssc1JWcHeVvrq2ZmZ7T0qO83KpiaWns6k2/przaA1FCkGNXwmsPcFBvaQ3hC0EFZtcDYAPi/iYsj7mdh8sf4sfT1YI3aibBfRhXCFM8wn8z82Pa2vLlJ8QiH0FWV8YyKlThtbg9yj83KpvVkaYkQCGJ5jiuiONFZTd13TGsa56fZolwaoOTtelxb/4qTPXnJODlOqmqFxQcdJSj/M3V19An3S8qISMmOAgREXwfy5bMwdC0tW+uN02F39HOTOAVvNN4sd849br0329g2Xt1xp2boPvvuTOPDBe6PS+0rLzr/WOl9+qipt6c4rzjBJ9wXnjaujhBFwGdjUkJr6zN08Ar6EMBMLrcoAUJyfoXnCRUtNifr6aNmJOeqjp0xOlROtP1+UVekJMikTKq61hCTibg0igugFFpPNTEvX+K0uT3IvaSultaTtfdl3v+fzTWd0xZJ0pqPa3TsXTCgLgmJC4s17+kDihrWOdi1+G2Nw/JqNt4uQ/2lEiffTcbiTGNnRwFM6TxCvNWsLA8wmpAJ4oiiRlpuzMhgGa5dKoILOgY9XYX3x2sQszA9B9tnc82BMevGv/BSyGecofGBojwBXTo62HullRXNzbzCfErKk26PskTRakVAazcVUMlpkDhtbg9y7x0Z2C9DQ6P8jIYOs1cIY76SwFoEY0zeplH/hoYo/kon9Qx1oz/1OoP4QFGC9w3Cflm1QwoaR1W0zmrpyxqbKJmbA2tAyG/m5uR03R0iQZjj38iMhDixojqlsSm7q7Pw1ghrmdFS6TbFzEQdBMIwc4JoWkQqV7Wy9I3whQAfUYE+rqwJD5nTmAWw8hCypeQf5f/TMx6E9shv3IO95qbYSMEzzPDGhiowDlCC4O/lMMOvyx2iaEB+c0VZztTUM8ynqDypvS0vOTsKBjPqBh3/rtWmnsTL6CXCvquqfaODEqfN7UHuwzQVZqRounYgoKv6Rg6/SD9mrfn2eA3ji6r4e1x1+ZS6ftne1jYvdg8d75hvpJX3yqrul1c/qKhxSFnrsKr2EXWdY5p6J3QMTuoZnDJY0wo2Mf3ezPy8hcUFa8uLNtZwlSuOtlevOci4OMi5X1P0dlX199AM8dGJvG4QH2SSHGqeEWGdG2NfFC+4avyVVJlSAdBfRn4s0YI1LVzWN4LR8eZwBY9XALyMLmo7paYNoYOmLSVdgbzi1aSXy/rr9iBGzvaDfaXIKtBBWTUYd83chNzzD7oGojyZbkZm6OSg5ZtKtzYVyErihLmdyJ2uJRMtYXc+fn/R9a2COO0UjilpMiuXAJxlarhjXxh/VPOTPvBeGRWbvFhlPzfg4h9srYF8lXzc1IO8dKOuGyYEr9JueoRldhQcIykR4JVuoaI2AAAgAElEQVSvO8/91khFWm4M9RoCKohLC4PTBkRfPyKasryjn9vdm1Xok5zTwlZEw49UaixgpBHlKWWijGjEBVrbcnRl3LeaAdNWJ/fEvHxaz5eBJjuRFAEGe6RVtO1tbmRF9nYXPZtrgiFh5l6diiV+Mcgc0yTu0Ax6CUJ8yLo6AVmjf3PJwVYirI0LD1ZyWENm8mftsNS2fInT6yZj8nZNbX1GZFKIgZOd2AlLai2eoGXDS4Tv1HXaWvMOyX0R62DWcFJzYyhaQj6ZwdHtoo6JW1X8akGYWAfHBWrZWou+60BLgQpRWqWI1KJiiRPmdiJ3Do9edY+KhQXdNuRB6iPzzRVlmDJDqPL+GU4azFA/vmMf9BBmDfrVopDv+62a9jlzc1k3J4jE9WMDLdIj+PrsCpjE/CtKFhmEqi+ARG4uotab21nE6i9rHqvsulM7MsWeeNhEJMz7pUIvb1Wh91XX7296/1jpffm8Y3quGU7i9qVYVU5HAUbcaktpyLx60grMOzZUgUFPd1F7e35Tcw68elZNajF8kcJ4CLf5aUK4gEA1ODbALcjL2tMZSFzB1PS8tj7GWXSL43rUdXInXjM3R31HSswuSu0SEf551ztzr7a6Lg1oV93aaj9Nrr+oR2+ZiJbSr9TW8+jY6uQOOK5Kw8p9zxXlD697aL1CVYHiewS+EX64qqEIbg3jp8GyqlMZt2AVx0/B3V5Z1e8MjS7Z2Sh4uWiF+ZqmhJGQtWBh6vdmZiTHhyNS7J9N46Ibs+GXwfUZ/jXpPtWpHpQFBWlhdIpG6CR2sBozbUO85WyszugaHN4wtawdjFOUNxgrRegCFPHxbe/UnZrK6hT/KH+YQ+8Ttslk6+NC/eQ/PePRKl86rWkgcarcfuROq04V0MkroNVEiGSJ2A1Clu8hlifaoWKw9I+gtbcEqNySWG1REEieDAY6kdclviaDwKsqZXa+ZfMJnY9fX/eoiFtEYRdEOCSn/vtL8ZSLU8ffKz0T49XllckQkylZmAtm2oQnBlM/G9AIra9s5uUncarcfuQedCOZ1lOOSKLxCv8lmHx9q6BO8hEY1XMK40jSpIYHyhi30f/91C/UqAGDEwJGffxUmX2yarb5cRKndUBae/7PYhKHYIaWm1XIzdgWxFplRcFMyDAhGMY/jWBvlevuMD0i8BF1knayh/nTeUvLs8amRJYmfBzT0jusoiWoir5PRvWAosZhVa2jGrondAl9UYgA7/eIus5BJc29Mhuity52BERfl+C75uPD6+67Y5WFZYlyJp/Kp3OL4ql/nO6Ce3hahsSpcvuRO91SJroKYkQ+kM/msDJDwOkcTpaDn9t+0j4GIcPvL0XKBpmebx6erJ+Zb8asdD+Y5/ZN1LGHKzJ4+QhVaYTgyAUDEVjnRANtGaLskySCUHbmbdKlrc3B6BRb4iOcuGBfGA8v1yI9wuRGiH5soGaoj7Kfm6ybE4xA35uZndQz+FZNZ+/G2G5QxPRd5jocYgewfFBsgLa9DfkSKwY/6NLLW9ua5UtbndzpljJJ0cx2TyNIcpc3NWM3ZPZ2F9XUpYUnBWvYWFHUnLH2EtmL9ZeBTF4B4gsa0ZB1vTbNDW8RHDr5PoKR5oSeIV0v7MC69MQWrLsmBlGcLOR4iHwdy5KIzhbblDMqmpiaeNE4ypI4L28mHEsTYYJilBCkFeqr6O16xdH2ezPz49p6MIf4v41kdnlTMeuzbj6AQGh95X1XVbeg0u82IHeAkiW+swThKFqdQv1Fjo+wxNu4xVIoXzWI77KGwVlTMj3Ss8amgh+Ja85pG6+eeNhEkgzzaKHl3mzjyCS7605N4xirtHfVuS2qMQttJQHccVRDVy/aH3N+v5o0mFu8eNYh8S4qiF/edN+daYSvA9/Fo5K2ceuOgWNJkllauE6En4KXy0UbK4gD9svTi59IIHSzausDCITWV1a3uyZxktyu5E7XT5WWyMz/fuqnOwUjgY2Pq1ia18pyp9AuCoH5BSvLy6RJx1edHTaIIJR8XeH8J3T1kd/ENGWPTTf85z3DAq7Nxx8rPc+ftvPHs+m55vbbNUU9xTD4SZx8JQLb/DijpBCNYG8ZV8fvzc2OaOgy8Gn6XlP3n+3vtEVXUmYL+qZuG3Kv5NCrAz6urPn3Co2EyNyieLEw+/daem8WW8XVwnI6CoR2SNO0sEPKWkT3c3CtzlDR20XsROBYknjws3K3XkxANq8Qgn2J90kx4uP7vg9ve3970/Pz6+53L7veLHe+eM579rR9aaltYbENBoOZee7Uo2aY39yeabw5zYFZTt9EXdNoJau/LLezMKU1T+JkLTqcypIs0iO0Qn0hRDhtaLyfgghlXkmCxN+diADqOEbcp3BR29IscZLcruQ+dGvkOw16blu0tN0/vO4WXRLyhIqWePeR5h63kPe9781Wxc4OEHe57wyMN6jbq31WjNp7VeWKoRE8QIn3STECqDy5NS+2KSeckxlUl+Fbk+oucta/Gys5uSU3g5dfN1SO1HO1jVePTLEfLqBt8FpgqMjvKpI4s+PCKjtaJ/K6vIfzeUvLY5p6mNB+r5zq8mKbxF+fiKCr4b6VM9y3AbkDzLz8aD1xun7ZwwNlzDw6+PhB13AjzLVjmrJJehqEzxC565PmbG1QqvtplAZOU1M2M722rYyJh01RjVkb8ehEQXB9xpp+Q15pbwl3rApT+osBZ5RVPVhW3lda0F2UxSuATyW25ECLghELznO9Ns27KhV3l54WLLOi9WL8lXzdLtnZXIujLf6xBUHXEdvGL1Di9Li9yZ2uyAwDS1VWdSozZncJ9Pz5OXb/EILZ9NyY/h6RLIRgyk/etYDfD6uSTSH3XFU1SQ4VI79ASNs/XIG2lg1NEEmzeytjcbGtcZSV3p4PVChxZgeEsDOLe4r5Vqvtt6t77tUOT9aPz3AmH60qRiwutS0/46286Pz1dc/fdBa+P7ztff+q68WzjoXFtqm55lsPGvon6tpv1zSNVtYPV1QPrBqxFncX53UVZvIHCW5ubFN2RMN6PbM7a3V3+s2O0IOjZZoqtYUlZbYNuXcO9NHlXFoiQXy0t+Uhlu1UoONgQ1Sv5B+1WjV6UE4NMaFmBuhCJL1dloKp6V5ZsfF7ZEPGv2uLkugt6AOyqq+fiG2nYVvgj5Xen151v37e8ewp78kifsbRzHwzcO6dmcax6VXf6r6J+q47NW3j1ezhipLeEhgwohuzN2HM8KpK9atJC6rLCGvIhLlIPHc11TW9vSC7o7Cgu7ikp6Siv7RmsBzuqnmUBQNG993agfv1o1NsuPPJR81fLhmtA8YA+F5wMDJReCJaO98ioCvzu1dGpXOwV+L0uL3JfZi+tjsz1703i63hScGHSUWAz2rqBsUG3LuJb0Tw9FGTW/B6YVFWgUjmf/cfNhP1W5MbIRQfxT5ZNfOMCNGZ4qq52b943mMWHtck3i23L3570wNR89zjltuzHBgDmscqKwfKcjuLEltyNkjhR+yAyP03OikMWxZ0rR2ULB0kTow7gdw9o+jpOzNQiETw56vuro6CpMwI5wAPS09nIC/XIM/YlLD6hox54sIcoHW/SD+MqMVlfUPG8u584CbnIQsyREVMfBzT0juksprWctleVBFgjZBV+Uwer8DWB6emt5SVLPGeuSPx7mXXg3lu553a0t4S8j0YCQIid4k/KLGA7pqMX1yCxIlxJ5A7XR0CKUYrM8zw48NGn3AsrSOAcUKUky88aRXsThaZkQpeLvqxgaeFCXkr+7mJpQMfXluwUja3wKQTqFlZ1tant7cxVDneBS38+bZ38lFz3VB5KDtT4pzOh29N6l/iy23/Zbnj4UTd5O3qX5c3uw6O7pqM1NZWHdhO5D50a+R7bRNaj57ZygwtLM1yvMN99kiTyY0C/Yl4ldzOQtx+JetKyZ5tNZNBtA6scn3dLbOZm+MT7ov8CN8dpiyb3A93MTvf4rk1imwHJ+vF8o06eAW6DrboriRnappfkvDTM97mPFK6azLndUwlzoo7hNwBLmH0jIpEWZkRiiczHK8wIbSOoLU1V5RrvVrucBboVBC5C73uPhnVU/pGh1Q0VQM8GPde+6J4dAGLnLHJ6GApWk1zd8190/DxfT9E7lk84QVuJIBR4XptWnB9RiQnK645J5lUTYgEgXXpoavq1oMifqnfX3RZeRJ6dp9U1Yap4SY8W7prMkBHEqfEnUPuW2RlBs7pEepNkdb5uKhn8NcbkSp9nv7YPjLJDqrLuLYmPHDFkaphG4wBIoZmMl/OD3p7iqKTQ8y/lEePTQ3bhO73NWNxsY1oAocA2JZfJNU2Xt17r250in13tunB/GrGy9JS24vnvJ9edb9/2bXyovP18w748fnT9h+X2heX2haerNZPTc+t1tzeetAwPFnfN1Hfebu2dby6cZQF52QNlJX0lhR0F2fzClPb8oHZ+RsAEw9FnbS9f9ZOYpiDIDA24L/vN1DYYKeuyWwbcmewMkO3mokcC9MN7iFezMqdskVbI/pjpc+nelW3yyIj8qCSxl4ZlXPm5ucszCkNLTZWfGF3d1ZKJq+guKe4ZrCcny4tiMYxFlpSGHDByvK00fpjt/d1i0z6IlGnp7NwS6m87jAAL6e359MajzcHCdwcEb8a8LUZhXRePsISgjbuIe/UNZltQ+7D9FdmLumJmqzCx/wU2y2YIa3zcURJ4/1THCNW6uCLkq8KPK2ptBvEB1KX7d4np6oe5IV0y+jGbMFZdiI3lyjzGtEb4KOpOcfw2rpUp5O/x6Yx3deGsr4SiZM4EZ6K1p7/pU+pk7erN+Ihr6oH6tFTD9wuazLbidwZrMzQ0pkRxNwk2yXQUxRaR5CYESFiK0xq+aRIhd7hpIJDylraEX7M+rB1djTaAwieRmZB3Mpiq9xnweH9sqrFZUmbT3w7HtXUlJ/pwqsqFXcNPa09P6+rEIaT2tWJHc6srmGExV8YBNQNlYv47ZZmOeS+N4LYoOCdrp4MAIhI4mS408h96NbIcRUaltkAn3Bfui/7xTy3jJVcVJ5E5NNEjm8V1I8r4/gvn1LVFnHl/eXzDuhXl0hlfg+siUEiuGBlaZpGZq5NDofihBNfBjUGTvbDA2Xx6eF5xQn83+QWxd8aFmkE3YUgfn7VJfHYnAgBdel/vRV1BdzGx5Vuz9JztON/9v2z9scPGmbu1S7OcH4ROWkSnf1FBd9rGwMRSZwMdxq5AxwCw2i9icMKGn/SNPDUsqNXDYvgmJImzDR/Xe6ANoeb9i66lUHTWKWKnzvf4fM8ngHsMW39783M0L+BMJ9xN9aPCzqlb4RecwfAbOayvtH6cCKremcMv153F4zx/Md2iZM4EWbnuSJ+u4lbVQz610E5NSd/jzMaOpjfn9XUNbzm4OjnZu/r1tNZSOtOgByAImjdxjZak9lm5M5gZaaeTY9SPcN8GDS79NyY35bXtZNws7ucrruL2Cv+edcfWLfqoG2ZFUkksX1MU++g0hdThxM6BgbxgYw7s1qAJ/psHiHefT1FyI9attYwKVnZEeoiWwrxXAk4h3isJUqGsjOjG7NvtOQiizaIzFF+V5HoX83OFz9sh7lyTmGcKAuh8qZmtO4EyIHuJbbRmsw2I3eYEJ3RNKL1MmBUp/W+Xy5wjyjSG8zdQ7wwJ8F1Zz2qrPkfkTO6Zuab+TkzdBvlMS09jWBv+6J4uh3+uLY+chJzdydZY5ObwxXOn3dZLT2dd5ik+xbBT6+6yZXjRAF/Uz2TVwBkzeova7lZNTxZP/3Jln3NZ3GK3X23rnW8Gr3sDuPNz6ItLQJgXovbPqOTQ5BjRofK6K7I8xGbEkbrZuhO009rGmyjNZltRu7D9HVmIAp4NkcvIRdZUKYIYG1MKR1aPgwNsaifGxIEPoI4qWeo4OVy1tRsz9VPXeWsCY63KgmMEoLQJ7xiYAQ3cOdm5Z+vupG6Dw0bK1rf67cXnS8f7yjzpo0DUOrmx+9EGLgvhnrU8MRgwYZ6TlsPY6AWHBdIl9nhJOjZs1DM3Kuje4ltoSezjcmdw2vbS6eGSIp+wju0s4t6hPZPhxXUBcMKGx9X/n7p/37qLylPIppX3hXH8vTbZ7wjqtoUv/u3atp6UVgna0AiN5eo+NCrat0L+5QBdp50e4wFk1lbHxf+9Bki92NKmtZezn9Q3tsorUxOyY6i9ZUfTbJHBvEFlnc8nv7Yntomeeu+FHEoCL1/1o6rugrNCXMk3QAL0NZK7w4jknCGGRIA7fD6uiVOgDuZ3AE6Tu603gqDhPeSihuC5zmlpp1TGPf7y85wvGZxWkPXxMWR3LRvYlw8ubpNHQW0nsB3Bsa6UZ+MmaI4WbdnGtEK3Q/muYP365tHWYXdRWgTIs0QnO0H7zCflwtc5EdHP7ePK720bt4jxNvAyY7WRzLyY/UdbcXy6LYpph41e1WJpCfjWZniV5PGlw2I5GTFNuWQDPAYQKv4+bUYdH2TMiOImqiZmxO6d5BoEuBCy9aa1p3887YXujOtSwDtSJz6dj65pxYV03orAC6XnsALMDh65f07dR0IJZDg1OAaVQEADMS48WhDsPJDhP3y6lbZ0dS5QDvCb68M/gzp/TOekfN6HZO6tRWtha8rBkaH5NRpfVlgdrgQxO/ienrbEcvPeN7Vqbgvy6c6NYGbk9tZyBoo445V9U3U357lzD1uefGs41e8HZHf3vS8ft6xuNj2cIE79Ul4gLMmPFDXeae27fNSe9NoZWlvSUpb/uy8GJbRns81HxJmtA0z4Mnb1WND5XR7Fl35VQZbqVvfd2knkHv/2NBRZXqjrpadDd22iKz6QYMDrkd+f2uYdtUDHwpm9LbyheIUBWvvPVdVj2nry3s42xbE0gr0jmislhR8I62MzhXzDPV2C/KEOLqnqwh9laPKmhRXnF4vtvI/Qn0S8/PzDv5H/CL9xPsAtx0EVcMgBq8eKK8dLK/oLy3qKc7pLExvLxAMvZNbcmHGBmE7Aw+QxlGWWG6eWeEIFcgYmdCamsPBMsb0tExOaxoA7Uic+nY+uQ/TT3iXol+t+mSG862CurKFxe8v1leTP670Kpqb0b00H2Kv5By/U0MUXEut7Z3aFwrJjYF5elhDJt+ADU0EyAG2+bEH5dSQc8LkF57Gm8VVaz2+CAHMpuHBQqhFUV+B05jFP1VsaijFr1lRnYLcwMIDjnif4TbC7296XCo2e6k9vjnnP+/FoOHR211Eq7NgcNXIOCwhqLAssYGTCUF3eWVydHLIFYNPfgZF5fR61kBvCd0b8IyKlTjpfS3kXtmEn1BFAgbitH+v9GAigpB42pv4fKhZWf7zjt7aNBWklCchl+D7LqFxUElTP/ZThnsoO5M/1+arBsI0fGy6YeB+PUzDW27y3d0Kk1rygusz3FHB3SWBXLGZe7WWns7jIywe75NxeVxaGPUb9gr9tI5/TkuP4kcuoapkYSwR+zPcLtj8zBmvqpT3r8ST5+oT7seY2eVMTXFVIT+87o5ICoaJNa0kGQBQAd17aOxolzjpfS3kDlCydKD1er65orwwLdKiLcQLzFqntKExJllwZalt6k6NWLqNqf+nlPPL9ra4UpEXrCwts2istiMwTMDZN74W4N7Jw27n2vu68cN5cvy10nMUlaFfUCo84IIADb3xpe9oe+/WDvF1owv/mvRNJvdpcWTu8jFzr84l0NPWx4U844AIbsFeS7PimbQ9ecChWyS1LexSdxS5J+bl020igbEBzBrEs7mmhHTCjX5yQGTx9st91D9edfGbOIeTJZb2etH000qRWqCXkq8bktWOxiUHW9s8Gsvu1rkxBwiKuR7crUUS+WFGAk/mhIrWIXn1+oYM8vtE1mQAlh7X6inoMUzfrW1sykY+1Syy0uw2xYe3vZvM7I1jGyIZ9J/3fdBOLuvTE2KUWrP98gn3Fd35C0iA7qWBaiROd18XuQ/cHD6lpk/rJR2WV//5OW3jrvySBPLTQiDAqk4VtB0wcnbAFbtIzPg0TnynrvPzczHYRS4vthz+rFZ2wdrSJDlMMD8dcELPkGLHNs+IOKaJH2EBj+vY28BE+KzmJxG3pEyqgpcZ+bFuQZ9GhYOyau+fCn8Xf7zulkXtfV3WN9oIxtkWEDEVkhYyeCJ5/yL4+La3vT3vlUDN2j/veqvr0n7QpU3xe6WVPcN8YA5dU5eGTnOgCOhuh+TVaF3xlJoeUI3E6e7rIneAX5wQ2hUEA29Vj1Bv8nPaeH8qwbgzVllYlphdGAcN+uUCjr7Sx5VejNkFA91KXPQPle+5ur65ekofS+6n9IwsMiMp9m2MWBgaFdUpXZ2FNXXpg33ru1IFpYkU79Pe1w35VNSNEKHHB8b4w5FnNdbVQK8FiCrRs01RP1yxOcweys74c0U8zkdBa2HyflnV8KTg98+wW+5A/RAVndehF6IhgLZB936g+9O9StCNZIkT3ddI7rz+ngOyQjJnMTirpfeBZjnGs7km8vxcill9C1NsFTwpx95uMYgxAbIJtgSOa+tphvjQ7eGq/h5nTEwPKWthzqZlZz06VBaXFgaTEnnT9cQhO19XdFoRLmBUQJ9qYVqID+JAb4lHiPf98Ro5k3WLy1Oq2qWVyWJ5YtsLH972Vg2WYXIcs3gFhT3FrIEy9nBF23h1z73akTWDvYcLXHSdGhrjMxySccKDlfzyOe2IGBfDA2Xo131ESSM8MfjJDHbpHCKeMlYyg7V4ukkyf73pRqabFPGtgmbvyIDEie5rJHeAjR/t9BUGKYk3sghNoIKoreNDhILOKfxivNHUFZfL+7VIbE7CRRtrTO+tHCgbf8CBTj7/ZLXI5d3LruVnvOn55t57ddkdXxh1WmVH42pP3hphIfkG+2VUU3Oix4bKYdZCng70erH1pOoXQ0VCGqX1nLkpNuYGxkTzYNnWWHnRCe9u8lHzrQeryU4dd2qaR1m1g+WlvSW5nUWpbfmJ3NzYppxIThYE4EF1Gddr07yrUt0pp7fffySeTdTfX3bianjskVYZH8FJnAfmhY4pqOhLBAgs6KafwfnpcsX2EvjdaeRey23eQ3Pvm0Hw/serLtwxX9HcTOjC3/un7bY+Qso3xGhWpyLg5nFK39A4KYRu5G6UELQfTwYEoGplubLUdknP0NLTeeZeHcUbgzA8NuWL6oSDsmpU8tYxGiAqFubHlTWfiomDth3evuhEHJHEDu5NsWUi8dfTBAHRAEmb+fC6O78k4Tt14RQP00da98MgbAdi4XZ3SJzivl5yBxi6ClkTFwSD4D1bYLUO2orQsvuh/hKKTUpoqglF/Pm6+wLeivlpIxMVfw9rCgoENnmxGMcPNI5p6Z0zMbEJ9h4er+KHZsD1FDWb7AT8d64YGP32gmx0BBLHKDCPj37t3iAf3/e1jVfjVqKikd6en80rzO8qKuopLusrYQ2U1QyWs4crGsdYuPbo7eIzKUUr/qNxQkWLim8XxFI5hXEnidXx7Hxd6d4Sg7AdiEXi5Pa1kzsDBw8GwftPz3jolfcLugbkibcfV3qjk0Oo39K3CuqLAsuRzPDLi87TuoSbVCd0DAwTgsn5Xc79Gr/2FbcC1jAx2CAu0Coryior+tjnJHQ9R7sfHzaS3FVRObZ35RYlVNakkSS3/fy8Q8HUFPMpS/rFaF8P/lzp/eV198qLzhfPeT8utS88aZ2d504+aro9yxmdYg/er+++W9d+uwbF6ZW1QxUlPSW82+KpugC8+7H9tAZOQAOhALLL8v5ZOxxGfh6YE2fkxeCaVtKtEfl1uYNu2C613Xw5dia5A+RMaXvjMUib8Q7/VF15RkOHPN8WGjHu3ik5IASmq7BIhOXFluPq+IHPt2raFhlU02bUgjwFz3BQScMkOfSyg+0VJ/vvDIxP6hsdVtH65qryAXm1vLr0397gjJo9eNXnWnZkSn63RiqIpudfbbY7GhCSJ3Bzrtemib4aE9uU/eGt2Mqncf1RgaOR2AUCc2D/g3JqLS3C3+Nvy52pOdFHURRvcI2epCggFc88hxxAKRKnNdGxE8idgU4ktDa67roz92r3rEnJ9/cUkxxWWZ0iVP2OCOFJweLqY3MznIOKOLch6+akF+VPRSFS9bPdEg6/K2uap0cQfTCxJYd3p+YNqih8eZ775+vuH3SxO2wk0gUwVRrqL/0W70keUdBYFtnJc1tjeq5ZXOvsEQ1Zv78RG7OXsnBStvZKKw8PrC+RoxUZEzMiPlIYV94stl41+qQk09iYTeuWIGw/JpD0JRTbUQNSEDuB3IdujVwxwtYQCX9/NE08APduVpLIH8JkE53HzQydYqofAfw4z91Lald2UEnzuLaeoCiNFJ5SDbbHyqnqRuPYgGCIY3r+087njUz8jKOGRsIy3dTcGMHjjylpOvl7ILUFXydg4MRLc2y5Oc2pHCijzuwh7MxfRHbOQwDRz35ZnPaWWxSPHPO/n/pVLL+Y1CpZmE9SWO6Hk59S1YbP0p3dMgjbLxtYSpzTxIKdQO7DjIL3o0qaQhf+qANik++1qObqeof7vJjnOvnjhMZHURNY0dHZU7yHpnEVLVywtrQrEKI9WT1Y1tqaxz/+Imoz4JCcupmbI/ynpOKG4J23tOQSXfSrXZaZneeW9paIK2b3r0l/K6w0gTp+f9ElbWgs+LLM3JzQ6nu4Njj7ZVQRbaLlOS5ROs1/3vfRdd2BDn6EvuHwzgjbh3cMuTML3hmrzaABoQQmyY8cyLzyt+VOXJENBTOzP8Wkxgfo6S3ZT5BiLwr2yanyS5z2y6sreDo7FCcQkYhmiM+3ShreYT7jo5WYZfSB3hLcey4l1WiDCI5883YH4Lc3PRCeLy21TTxsah6rzOQVuLPEKT8Qzsl8T9kZkQqcCRbx0DmLc5Ns3GoPxP4Umv1JVW0IR+iabxCBgZLMjgnbh3cMuQ8zCt73SqvMT4kkFQmzRcw0U9gVldFSG3fHKuJT9kgAACAASURBVHE16txDvMTY8SYnai8SZzcywzfSynoxAUATxjdChQrHAxYX2wR1Xy/oGPxKkAp5e4yVX5JIdPWjShoQ2ovxEW0Efn3dvUbQ7Y8WWiYfNd+e5YxMsVfdjm6vyiw3jFRUD6wWHxV0FwN3p7TmRTdmB9VleFZuuIZMQnPOH2/FYJuHoKCU8E1p2VrzpTj+etON64WgZWeDhO3shk/L8RBui9gxAXAGun7LUjsobB/eSeTOLHhnoPP+79oujUugJwNxO4C1lzP6VEEEwcULse4Z/rHS41+aKOPsgFt0KrUWiZ82ND5tZHLByvKwCtUNKCVfV4qEohuAk3gDMHV1/B0vhHyxwMVUtCKw8nDOyI+Ffx8/ECJgsNH4+10fBNe3HnC4Y1XA0TdaciEivl6b5kbf8GjTkM0r/Fsc/hsIhvpLyZf+TqhoVdak4m5H6TjYfEAZAaINLM/r6C/PidQFGOi276SwfXgnkfswo+BdinhxgATNzdkMLoSgoioFORWME4J5wYJ+8KLjw7u+sOpUx5JEk+QwFT/3yw62Z01Nj+ClG57UM5B2sr8goHOJ33V1DCyIM2f4kPfA8TuWNzGLSQk9o6Fj4uKIudWH9+v5qTVHCRZMMwviPohvJ5DqA3zbO/+ktfdeHV/jRSxpiOKFByvZpzrVvzY95LMLdtKXLti14lZugBAENxWdCk6par96vG4DMHOvDku1+oaMNX4Z2C1J7aywfXiHkTuz4F3e1Ow/eFYvJPhtuRN3+wj35IILLwfl1B5OrO8apX+ZFgIxzt8r4pw1I3j7nCdjY3VCz/DqNQftCD8+KdsXJ2iG+hwVqPIA1taPC/rB1prK11T0JgzhVfw9TukbnTE2UfJx+1ZN+Jr7y8ct5u5OsSlhU3dqSCrRYVToEF9mEQmeLLU1jrGAKDefrMM5WaW9JZ23a2fmm9+9FLJE/vF9/x8rvT+9Wl0LWn7GW1xqw6TT4JYgiIhKlAkiXWAEsWEOJ3jMWU1dQcVgoYDujFa1o4gdFrYP7zByH2YavEMbpduAFqYbjpLGLMeUNPllGoLFmYAfdA0R9YK3S21IDpl7iBfdkYYudD2/iKMPq2hfsrMxz4hQ9sOZOCt4uZgkh54VqBQVBAwG5mlkIfxVF6x51j45VY/CuJyOgsZR1ugUG/gIXU0jKFfAx0VdfS43t6TixtLsxm6rdt+tjWvOlmQkXpmS3p4vKBjQNFrJ6i/L7SxKbs2DCJ3KHAJmG2J/PjP3asdHK2D6pedot+8qvdVtjOJeVW0a0ZGDfbQn1syGnB0Wtg/vPHIHyJpixbOEAiJEcpETXPR8qWGLxhFFDfSM0tITZ10CYs87n7PmgdOl1vLGqNR0iA6vRBwLvfOWlhrB3kC4mN+fNjS2yY2xzIqU93CGQP6MielRDd19BBn0V50d7Itw9lfl3PEXQPcrqGPkEICqUtvyDL3I1NYu6RkO9Zdu6CMq7ysV/BbJLblD99mz84SCuuSYmefef9g0PsMZmWTzl3eiOFmbMEh03a0V+/Pp6ynaK60M4O+XLs1ytAQcd0mAFpl5dL/+MIFKnZ2vK930x99fdFGRHsNAdkeUpGKwA8m9tJ622gwgglF1aFwafhIkBDJoWbGVpTbcBvf9Z5/ov950sxsy/xBrdho5cqtTcQ35iHDW1Ayo3zY/DqEMu4J405Qwlevux75M8D+oqKEV6oscZp0bcx4lxnDysxIsTBTOfHZZ0gpbP94yMxLXSUoQKpYWt8dw9GNFx6vlDgkG7OLF3Rnxz2/mJtmIoBuiIvDPu9749HCKDqXndfT5kc2vyx1XDPBXOGWMTISaBAiCQfojoKy+TuLEJXbsQHIfZiQVuVdaZWy4nG5LggatbY8fsJi6OqKDjubmHMFjbmRFbhqbC2JwlHVEjVB7jwq+kVYGZgea1onApjkCiRsmBvPJ3TA+COhb0dvVNDXcviiBfwCfeiDMh88qeLnwf4TAn//X/fJq3xkSUnxCWkRmQVxKdtRgX+lGPJl3L7skTsqiw68m7TEF43K6eD7XfAGlJKFhY/Vf1ELi8EAZRZUuiPohotJztMP9K8TyMITQvbfbIywGzdjMy0/ilLUR2Jnk3tjRjqtoSA4ZYxMGO5kQoRMtvqOzYoDo0RGKnKnpHWIlg03Dy8U2aWvaW9CCOG1kgqtFc8bE1CA+CEM6aHLHAGYDMBJYZETaFcYfJ3bnOSSnfmtkYy07eLdrJM7OoiCBm/vza/EnFC1MsQVdkzLyYtDHvPux3QpvHZIWmproacj8u+bbRzHN4cu2pNHe2y1xytoI7ExyB7iEEdonkYCB4AygsRE/M/KgnNosKismq+CTKLxnmM9fm57JRwKnaHxrBVqA6PuEDo75jtSaCrx2hB8VcufD5EaI0Fz7w/JqecUJG5oQOfmoOZGbKyl29qlODa7PiG7MTm7Ny+0srOgvbR79YmeV1V+W2pbvXZUq+NmaQdpzUCoYGyrHTXyEGPz26BfrYxDKFJYl7ieVNiJBSHwgg9tjICMD8ItLkDhZbRB2LLl3DfYdVaa95nBAVu0JBXsgQbjiqeNKreXqriy18Y/5bbkzMMafQWbOJqCGm3tQkbYKBxr75FR1Iq+THADRPV+NkojcTdPCNIK9vzczp37R79R1ZiaoukExw7uXXV13anM6CnxrcGhUKLyqUgLr0iM5WTdacjN4+fldReV9pXVD5S03Kzvv1A5O1o/PcKYeNc8/aX32tP3Ncuevr7s/rhUZ/bGyqkCwuNQ2M998d7ZpZGp1D7ZtvLq0tySBm0NSyHqLUQMWCghTSMgawnlBt8jpu7WImiN1qDHSvl6VLaM/lnynYdA/OiRxstog7FhyB4SnZTAgKSNnBwbJiD8/7yAy+VUwMxPq2bQVsLTAvYynUnBEXeeUvhHghK7BAdIBAMLzU6RVu3tlVFWuu+9ZS5tzLElEU5JtQew5cxxahxPKCmRA2/u6ZRetrrlzuZsqQvDyecfA/fqC7mIIqwVZNbklt3W8GkaCofvs27Oc6blmJE/mwTx34mHT+APO8GR930T9mgJBFWeUBSE2hORFPcUQm6e35ye15IU1ZOKenApimnLEZW8tiLlJNjl7wksR/NTvLzsRIwQqOKKkwUA4CDqsiiWT1cXEvHyJ09TGYSeT++CtkQt6TDRVGPjw/UtaFHdKVfvmNrF1dsNbotkno3pEQ/esseklB1sFLxclX9eLNlaCSZPHNPUsMiOJFA4wwJA7H/bFCcaJIYbxQQCT5DD+L83TIvgfOYnyXLb2dH42J0kn1ZUXnRBQN4+yMnkFmyAIIxQNeMbT4sXCdENgbABJPgyRW2RTU/YRavPC1lYmozUDFz2pHZr+iMZOJndAVlk5g7f+raI6P3uXLvyjCBev90irTNwSjwHxL8sdtfXpdM1GqIPbUfCtMH+DY9r6RonBcm5OmN8r+boBv5/QE666A4dRpC3zjE/krh8baJ4ecdXZXtbGSsXG2tHPTeLyMggaRiokReuBdelzj8WfFcMHTDrffJlyU4bnyMHHUWXNVwR3AvG4ho0VeZOA7sPgDl89bvkWz5dGKHZk+iMaO5zchxmlRQK07W3+S7N64t+1AooLAn5DfEC8MzYknm0ut+DViqfL+kYbp3z7x5tumxDhz221fvVGyKEvR4LzVpZWWVFGSSEyro6njYwFA3w+jmjoAGtTIS84G0Lu6N+Hc7LK+0pbblaitxnrhsqLu4vT2/OjG7P9a9KRg31rUuO5ObmdhbVDFV13au/ONP641P7XO7EVA8PZIITffGav6C/9c8MK30YGS/fLqB5T0kT2jfgIT8IpguODxL3641sycWwZIxMGStfQSWkVTyHYqemPaOx8cm/ubD8kx2SrkIHP6r+rInnYxZnTGrrx6eFijDERobEzGjqP7tdvUMcGDA5XnNUXUk90ztzcKjsaIxoDOKqhq+TtyqdvIPpLDjhlw3tlVDRCvITyl3V2NC65iwUBtWlp7fm1QxX99+sfLnDpuonCR2A48aqSwLJMOCdzYQPS2BEsTDcguTGJGRHoP/3nfZ+5uxNRk2hvzyNrVH0lgkp5e6WV6dpe8wGdlEHXPqqk3d6/M9Mf0dj55A4IukFm/kAEiFke3WeSiYEIl0NwXV2XJl4VMA4nC32T0P3QldwbAf/UsL149mnro9daGgyRIMFeGVWI31WuuxvEBeCmrp+3sEAXvgrCJi9248hdEGENmSW9JQP3698Ta3W9Wu6oH64QZandnZXsVZXqU516vTYtsC49lJ0JZB3VuCrlmICScoxrxhcsax0Xbk0nCl49brmI2uEA8uXx8tEH/EJcWXpOW+/3l2T7ujAPMPtyQS+FUQryxK0qZtmWsVnZEielTcBXQe6Dt0auGgtZ78OForn5n/QlAX5/0RUYG1DGSha7UMzMvVpBFY4DsqqVNakb2tXnZpsUCSoJ+YAAXGNNHoccMAzgj6Pyaorerta5MbhEBtS/meSOBrAtkPjtWc7c49bZee7IFJs7VhnTRKgmlt5ekN9VVNFfyh6uaBuv7puovznNmXzUtJbpyHv3sutPgiQ/mDHAX589bYepwNh0A+9OTfVAeU5nYYJAon1OR+Gb5Y2VqXgxzxWsBvrminJGXgy66Hpukv0tgSZMbEoY+SUg9kdkIOVMTRnkPkLHvERha0cQ0kZWEmekzcFXQe6A8gY2RdULDMRixScWvF1qI1rQl1pLRMMsjIodJZysYwITaj72yaoBBR9F/fUbaSFP+5CK5tVrDgD0p04bGiv5uOnF+JulhdsWxPLpzL44QVLkzgAQa6Ml1EmQ1JIH0bpfDVVd+EhO5iP6+rd0sTDdcF5Hn+itWXk6v3+67jzc0oIjqiG1pq0E5yG/0PTd2j3SKtArmU09mWnIwOUqOGyJ09Hm4Gshd4BDIA2nUzQYiI6KHRDa6OItW6MBfXKjpcc+vu/3Tgzeh+eEKefuhCliOmduTrRWs84Ccqqyro6GCcGX8LbF4OPfGRpJX7Pn/6hy3V3i3C0R+Nekw6ThfxvfzO6MVZ4QVhv8vZYe2hk1MAY/QwwCc6GXg5noBKP1peGBUmZ9GUhA4kS0afiKyL17qP+UOmHkS4KzWno/P9+ovEOK8BVQ5sIFY+caWnj+pM1EQPx9z1VV65wYjLWTorcLlbTIA4oaulHXrbKjiQQMEBxW1ZZ1c0J7PwXXZ/DzZID+5h63EMntTj5qHp6sb79d0zRaGVSfvkEsLHa4s1Laxms+brDEPx/3blYeIN1cQQDx742sSH6t319vuhUIHHo3yE3lzWIrRW0yDE6p6QMJSJyINg1fEbkPM7XykFr1vXNlkBkpLuDafQjigq7BZt7V9BRb5XNMzcdFa2t9gcmyfmygkg+ODYgg4ON2BfGXhU1Q+DiqqQsjB9Ey/Q6AS0VyzWD5b282Q9+fj1LiBHZcaNvb8JNx+QssggfIGJn8807M9w/d0NqbTOufBDvPjoMcXxe5A9TtaNvmfmoZjDb0RcdgXwm5ATGCmJTQzb+97qFyeZTosU7kdVmcyiZXk+RQCLqFfgUI8+2L4q9e+8Kz6ZS+IYn0/EUbK/tCHHuQbY38rqIVYb56YsfHld7swrgfdGnsUh5WUC8uS4IQnl97IQhWtZi3+pmpg622TCd3iZPPJuOrI/eW7s4TqkzmdHuuKHd/6fq4CXgywzmmRNWAeObexkpokWD8drXm5+QHrTBfQUdsIGiT5DA5NyehUsyn9IwcihPOo6RCjqjrqAViddm+MzS6aGPNXwU6qKxplBSCJkc3VnJQfXoiKqcwtS0vvT0/k1eQ3VGY21kI7FnYXVTcU1zaW1LeV8rqL6saLINIuW6onD1cwRllNY1WcseqMP52jFE7WB7KzqBC6yW9Ja83rPaYCv73U389O1PoyjsaEKHLmeDnQZ3R0BHjPlBvV9EeRmkRx1V0OwZ6JU4+m4yvjtwBORVMFP2l1pLKn2+insmvyx0yBLmDglAwM5MgI/DxYLrByMcV5hmX7GwU8Hzy5NydrHOiZVwd95Babp6zsLDNi90nu75tqxsTgOvjekLHAEmvVPJx4/NjXHM28GnbeHXvvbqx6Yb7D5sw6+9PFluf/tj+8nnHyovOn193/7HS8/cGLGrDJUYm2TBOlPSUpLcX+NcKWeiv6C9doW88tEF4s9iK61jNAHklCWK5peV57jFhqhhEyGWxJE47m4+vkdwBNn6BzFqJurXVnxvggSAImOpaeNBYQcrGq6f9513vQG/JRtuNYvD6R55Pcsj3BMPSQUUN9SAv2/w4VX+PI8Rel/Kezir+6+4fB+TVrbKiBOtgMbhobS3ieohHZYpvTepaVVFGFCcLxgmKeY1wZERDFkwX4OPurGTqV/SqSoHpwvtNdFj8d42721rzisqTsgriWNWpt4YrBONrCOHhAIpbrCSA4F30Oj7odGpWDF1loLNLnHAkgq+U3HuG+89qMamAAPiE+25C94tMCqF1VxhVYeiZTU3Zlz8L8Mamhm0md/y7uvE1UMzOlLOxxr3bPVdVL1hZakf4GcQFnCfotAbxgQeV1nUjzpiYWmZFHlIRskh12shY4ivmFBHdmD0y3cBXb9808Hj5uM52B+XUXIM8BRMTF6bYQgW/hKKxkbatEgbQ6Zhd+gd9M+jsEiccieArJffhNR/tfXQcotGoZ2duaA+sY9NTote0tUJ/HLqooJpSaEIgXSN5sWBuhuMeF3hMHX+fA1j+nLm5jLOD4J8Oq2gpfOnWdsXRzjo35qSw3MoTugZbOYvGuyq1vK904ckGysLg4umjJmO854yB03V3jAwkTCJhXrhfhBDeytNZlDuvrE5hdl3o4NXNTRKnGknh6yV3gF9cArNGc1henZnOERXcGaskUsw4RCCVjphYvn7S6hVG6I3gHOBBLvqxoeB2F+l5uezHK4AiwkEBU7ezpma2+XFqAZ7ooB6nV8uqKXi5kEvWbDL8atJY/WUPGUlJi46RwVLqe6RwpGDh3uIMh/Eq/BkNHcZ3Pn23VmgpHBF2sIUeFXzV5D54c1jWlFJWtSDO6+gz03wnx/Ic9zuClWg5E5P3z9r34W1F3hyq+OtNd1ZBHJHWBwJpQ2NmNYFiREVTtpGP6yECV3GhOKCooRXqC3SpG+1/2cH2KGk9yxljE5XrHqZpYaKzszsrOaguA1H1Sm7NoyIGGVyfUT9csbDByhDkuDVccZDOmCq1Zj9QU5cmeKrGxmxBTUehYJxG/OpxyzltQi0EcqjaOEEHlzjJSBBfNbkDOLy2A3JMlP4BShbmv70QZyD856tuFQsL3GsdUdJ4/KBhdKgM9686Djbfa+Gb/Alir7RyXrF4EhhERHtPiV2YzyliJRNyipd1dTSIDwICtS+MV/Zz2y9Pxl/75dWvONoZJgQjtJvFK2gaXdWC592p6b1XN3Sf3TdRB/9vHmW1jld33qntn6jrvrtqW9o4ykLMqasGy3I6CmKbst1Id02jGrO4Y1XPUDIsksLKUtspNdpmwlJrZagcTpbgCX9Z7ghPDMYNMnAbG2NVO+hcinjOi1TwrYJma0+nxOlFsvjayR2QmJfPrAEBzNyuiaty9X8/9TtddyfqZj1dRXDM9SgyB2pamJ9iS5x3EDycbYwritdyu/YtnfRqMk6RUfnB1lrO/dolO5uTeobo5PqDihoyro42ebEbsfBS3F08Os3+eVPyqSiCqLyICvbLqN67WYl72qVZDlFzXX/Ucmp9PUXMbvuft72mrk6M7zyjrEzixCJx7JL7KlzCIhk3o4ikYNF74KP79fa+hDX6fNuQj297jzNdysDA0tNZ7HLE4sL4nerYghh9bxdmEf0X5KKkeUxT74KVpW60v1a47wndL054xdHWTuTS1oDatPyuot6JuuVnPIk/OkHAbI+ZGCqC8zr6vy0TTk/vjFUaXMPXgt4jrSJK0Z93BMP0GAB0Z4lTylbALrmvYvDmsJKlPePGxMxQGwG7IZPk5BB58Q+DriI6rZ/R0Nlocw8x4uXT9kpurnt8kKqz/SlhmmLk2CerBrG8ko8bOplyv4I6kD4tNveqSk1pzW0Yrph41PTrmy0UoePiRhZh1BIcF8iqThUqNQoIjBFibTrUX2JwDdt9yljJjG+bscYAADryV77UjmCX3D+hrbfrOw2G9LHninJ7Wz7jpkxiLKlhY/XXZwZxDcKW4NPFIXn1mXu1Emccxvj7Xd/AWGUa64Z9hJ+Ks/15Y9MjqmJYxpH3dCai8uu1aYncnPK+0u57tbMLLT/RN/mULHQc8P1FkbqH/77vC00QUtAHsf/shHBli8nb1X6RfvycHKFmHSTo4DFfJoUuDB1Z4mSyRbBL7utgcRr2UpPowuNNtbsEq5NCAfSNW7L0vZYe4iX/x6suQQ8mNPYKM8cAtLXimFu+f9bewSsoKE3MyIspKU8a6C35VaLaJgww+4DT0lWUX5USlRPtFutv7u+mfs3hqoXFeUOjU9r6x9R0Dipp7MNL0z6koHFcXeecvlEqJ6tyoKx+uIJ7s2rgfv30fPPL5x2bI7S7oSBax8NUFQktEbLxIbS9xuB/P/WTLOMIxb2bVYdIN8ZJcEBWHbqwxGlk62CX3L9AeBq96iE0TqhoL0wz36UcGSzFqFSj10+am7OJrqtlZ3N3rFKoU7CgTSVc0dzdSXBNdt9VFWsvZ7Qhwy62KYj0RP2jvlhp+bjSq2WLX0vMBzSSTbAKmL5bC52IcQf8SpxRqWOX3LEw86Jki4GLs1p6ovD78hz3sr4R/1RKFuboP9ngaVif09bjcLIgVrp3s5K8gNDRzw1dnvp2qU1oqgMAKB5uSeIMtQsi3B+vzi6Mc/L3MLhmBy9LcDeFqFUckld//WWJ7PO5ZnL90eTsqA39Lo+nG0Rh9q9WQIYEu+SORc/wwBVGbtoIv2NkXmjh1eMWvqk8uu7j5+cdmLTiA7KqSZkRfLGnF/Nc8roSZQsLtCzUzL06Ei9WDE6oaG2jDdivBL+/7MwrThC0h4aZ34cvszARcSFBCEokNTURzg4BKhYWG/eNgNmZmSvxAR22f2xI4tSx1bBL7jho7uKdUmOehwe9ThR+Byrv6ihApyryvtxigkgNOf9q3ZMlft0TH6fUtNEyxbMTdXTzKSH6uz3Kkjij7YIPoOAzGoTqmBh9XTtfV5I3OzyAXXmD8J/o4G+uKP+5MfvJ0D5FYfZTanrc7g6Jk8YWxC6546OqmbNfhuHGDp/f34hPGWr6bi1/vxR4/ObQehy9WveE0sXF4WUZ1fGRdV5+9biVQe04f4R4vwWKLb9yQFQutCLppKo2ej+8uIzMoPG8jj7GHHhplkOyM//grvj1lIDZf9AzYtzRDslrVDU1SpwutiZ2yZ0QKYWFohSAyJmYipHfF6bYd8cqMbKOJFnMfFSj5EH+875PMBmZOoQmO+9iQwFRM8XXF3Vj3W0RhnNyj0YI7TEXcg8hHD/QgYVY8GaxVRRm3yut8nW6cFDELrmTIegGPctgQX7/+flGFS62tOSQXz088YvSWYou20SAScBu8C5BUFcRgNAbXc1g6yPETjojLxZ9odbWXKIjIbwQ4zcCZpc1wXHXoo7Y7ByJU8RWxi65C4FDIGGFERVcNTRenhd/wsnErSpynT8zN6f/oNK0Xz9pPUKqkSu1tsPW1VEQEO1PdIAoNYe7EAU8mnU9Og42yGen7tQIPb6OnYEcT1Iv/epxi7i+EXSKi5R39XGxqzEgFLvkLgSDN4f1nUUqDYVGvDjLEVev+Pi2t6Q86Sjppqi0oTFmLTU4TkgVYkJ6BHIwUZako58b5mZgNqBlZ5NTGPfTllRW2TFQMDOj1eQOyav/8259Q55KbfONrEjg7qH+0nPa+PKiF/UMxPV1oDuIyOy619x3NQaEYpfchaN3ZEDOjKHsOx+n1XUeTtSLpWPgeqShARH6wnQD+iMQtpNnwRtec/gvKsxPIVD2kDMxwdwMjCIIm/hH+d+7id0V2AV1/PWmG9dK5f54Ncm7s/VxyS6MQ+e2KpqbYbJXV5baqDt1EEEsAnkA6Ainib1zqUDW1Ba6pMRpYetjl9wpgdffc1FPpPXB48qa925Wid7/jyiSra58c0VZUGQ1Iy+G5CMH5dR+fNiIPp5InxK+AubMJi5Ya57zOvpBsQEdvAIJWj5tL3x43b0wxWZVp8LjPaygPjeJLYIjqT1GctWfzHBOa+gqW1hwubm44yvJSjoV7JVWFiW7FwF0ARGVTa8YW0FnlDghbAvskjtVtHR3/n97Z/4eRZX18b8GBVFEQVR0lGELS/aFrCRkBUIWQhKSQFiy7yH7SjYTAtlD9oUkBBJARgZGRmYIigqCbOL4qKMv6vgeaG0q1V033VXVXd2V7/N8nvyQ53bVrbrnfusu554jUd+XbHI+p+NZbCzXLrfZCST0WKDj5qxhvY8vo1Y0H+cW/v7OqNBq/hsObrwrb/QTXC6guUJAdHhHZ9lPlhTc3EKgqRUNt/33hOn6d+umMmcEfunvrzT8psamXOeiG7tCBGT81AWk9KD33P2g7IYDcTcC0ve3XcR7bi14erLUUbq+P3k4QXNk3YvHJsfpFr51vYdRnzedtvCG2EcbcoUKr/b05pa8M9NnyCPTSC39SNI3X8LT5ikXp48FxQgeFCLWeG3l/YQR6L/h2BHDb/3b49MRiaxTEULQR4i7gi+O0eEaMn6Jyo7kSkYBcTeO7uFBifr+0nqHrq4y6TLR1V3GjUlAg+j/eziutxijMrxI9D8/GGOk69sWFcYtXFWXY/hTv2bnQp+N36w/zqJonjyayCxMMuRdabJuaWEocsjeSGPrYGxiJr/du6QfTCWDF8r5biBvO3tD2Y0F4m400vV9wbPZt/S9x+mn89w/4gAf1bcgQ+SUpAjVYYWjG2/NpFp42E7QpbiFhdK9MtgeFzk/1+KfHUGaYydcOKTPMAAAFfxJREFUi81WP5qcaX+rd5amYeFauwefG3dQjqyuuDKDfbJJS1r+YYljdrpdTrGgBRqu7N0jg4p3fKsD4i4G0vflDuKjYWjYtW+P9Fx3H51vXmrr/PIGR56HjJb4VMEgl9nFydyS33w5xPawnJr8QFv45rVucU/tHR76q874/bs7I59f61aBp83jW0OT4/U/3D3F+3900l6j3lJ5Tbb2t63txYySeaWpIup55W8trjv05/HQYBvgzw1cIQ4y710GBB+FspsIiLtI2vp6peu7R9gO6cc+aex2XzjOAeM0+dVLs0KFsAXoTact3EGclERo+WWz9Ii0XrMWtMzOJTg2orQ668xEgxWt0d/7rP/USE1mYZJDUKAmXsXelFmbHxenjxn7ily2B2l//tknXYyS9D1+fJv1rmjSQF9lvcMI+j9VdZX788iRbzm7Rx2KFZ3VmgsZNpm3xA6yzN4dyi4aiLt4SN+XbpbqPrza0+fGVfEh4OeEMan/jhNhamiwml1PnhfHBl9BDxwam7MDVS7Z5MQ9Y0Xirte/kxQ/IDo8qzC5o6v0ysUTFpUfimSRvkMb/Pz01pwn7uzgbqStNIXq7Crr76/s7i5vbC6oqM3+9+y0dtrzBHo5lH1AqJ7XLrdrIkiz3V1+uj/28ItBGYM+kklrMxNIUfa2/j7Fu7n1AnGXROdgv+jMq1pet3P9SPIUWIgW4Ul955/7ujRJZ7vPv7zBkTo/VzKESq50cdcM8En+3hQ+q3K8tYhbyZA4VmRa7sXdQ7fTDKOgIp0qr2CsG8a2M1HXNGubmhH4YUtoiN5tcB5Cx8q08PZgNTS3FC3+8/CaY1Cg2V4OTbzIpCV2infcfHtGhhXv4FYNxF0qZIJkiBJN+aX1DjxFkAuGK+SLa+1pDh6XkrCYeX51gc5CCo00hUqmcM4xTozVCRXjxZgUl/ubhN6oV/G/byfv3xy4e6OP/n79aR99ok6P1x07UUiPQx+MbVFhBM0VaKBdUpVJcskYyTJymhM09NaWfPTFIKOkgf7jVGd2jtxXNjpxE+Re/vA4L4QktbXuToApqG/Kl+gYo1F25LmWDsRdBsgQ/+pltOuILuH7o3+6P/c4zlh8IkKl1GqVuzfPqYa7SsvjMidLOEPXIhKjuRcU4Xiz4NlpWKOU3dgILW84uB0pT9MbNufXx6cdggKFfkifCm3Je58NMG6x1nurgdG4GHsnWtZ4bfWN3CXUOnrTo8sIfTzCmQtQBkJdCcouCxB3eRg9c9rGT1L8GQ2b/f1ljDKmQcSGnhYa8fG8Jki+hQqTrHBLTp9pFCpJ0wWuULJD3zC0zPCXQHfRuo0apzUe3v+avQKuobQ6S+gn3CA8Tx5NsP0OX1hjR+9tvY+vBtftwfTla2wu4K6D/f4sjYbEETH3kyM7ZLTrmBsDBkKdiLqS4t1ZHUDcZWN8elIWfV9q6zw4KPMgKzn3oLjKVNfz3edThHdovcNDte6MPz8YY8Q4q23M017w03+yvEEY2AcGGPUSjDp1xYW+CjzPot+frSwLlSe95rrz2wb4i7gpSXllbTb32FdWkaTo00s3O5soTx6Z65wBpQ3BITiMOpHiHVk1QNzlhEyTDFS6lS946oSeousPLhq6FDudpl7ok8C7DmkNO92lzVa/zMIkGtVu9metgXCzSTBiWr3r5kEfDKHUgBv9thn1Ev7z1Yjo5qDBNS+K8uPbQ4zy3LiMjC2KOQnbH639Xv5w95RQPF4DuTDVJK+s07wkKWeOaNIGsiUsavI8klzLCcRdZshA/ffuk8XcPcJ28OI1StT3lDzBQbcuvPOoGs5PCa60GI59QAD3moxkgTQ6/kNJbw2NjdbSZ4O7Ok9KZ+xLeFXUyoyGhLQE3tXe9xB0lOJOTdiO6nPC3Wm/cvGE6MWZTdu2yRvE7db1HvdQGaaqhF9MApRddiDuJiE6jRVl13Be3ezUfbJcxg45NdmgcXxm8IaD25DAuhAjT5Ph9PbOimUYmiAYGEvvUaaPP2qJT014ycbBb/cuYx//PQk5Ihats/9qppd7NaGsJkTUodhZJSXsNC6zc+E6urAPrApBKsxbxJdIX18lGacsRr4vJ0/xDqtKIO6mIrOsYuF6gyJ4zElMUtyPX8vmx/bLNxPd3eVuO/WcPv/LFs+CinSh40L0Q9J9ic+iG+tK6GPzui0/fDyXJw8nRIQrYERLDoqJOJCVqPe1aOElrKgQjrS+3mdWYpN7n/Wzl7PYnGgr5l6N9J3tGcmFvoJlR7Okh3XU8t2dkd0HjYs+JsSidQ6FdXWKd1W1AnE3IbUtLUs2SUpNoIUUUPaDTjSUGx+tbWjKr2/M7+ou+9eVdrZcMvzWDcRj1w7eyvV/741pjuwLienYaC1vvCwFIa/QFY7PQ9WX1whK9mpPH+7VaBrEeNjv78wKkTbzcSc7sD6D4NgI3oNMjtezD1IteLavG5scd2dGzhS+ly4cf9fNUxaTfs12S11rq+KdVMVA3E1La1/vSlep57A1LFxrX1yZIeMuq7HEJMcJ1W1nfNS2qDBG5d/38Kquz/35AX/Nl51D7rkQ2LnYBwTQt8E2wJ8uRZ8ZcY8gtJDCnSX89vj0Oh/Blaub1547qrJ3aHV3L2m20dFZRnMXxtldvSy3d9V9lh++Hs0rTdXrprLCwS059+AXsvrUkuGVVGUuNCyc5JysdPXuHkbQGNMCcTc5QxNj67YGydIlFjzbZb17Q7Yk9IbzNMOfsLvb7ZmeB58PcOPLc+HuLvJo7ywV8RJ48SwNZ1+64F431+mQscdLUxzuBVd7Cp7nEgrCrIGmLDRzunuj7/Nr3fQZmDMgsJAX40/3x+hTV1qdmZJ/KKsw+YPmgssfHpdxEUaDjHunxKaAncOnxxTvmKoH4m4OxqfPeEaKOWGvlyWbnMuPZv0iOVywUfT2VgrVx21niKaM0KJH+OzzqFzE5X4bHj4q7ikYruLck6jjo7VCxYpmBwwIF86ksftgjOEVu3G1k/3ISmUrJDOrqM2RmB6Pi0d4NBxjzAPE3UxMXTy3J1V8mFxdNvv7X/2oxTw9nCb4DA/rhj999YTiWy22cRDK0eG3m59i2xAeiXX8YCSb5i5iMJwXY2bnMmQcjDLqAC17eWqli7siyk4GRmYml8W+sMZuX04edQTFO+M8AeJuVsqbGqVHCdby4ho7Gvn+955pA0L979tJxuID9VhtMiDG6P7c2Q/0XvxtZ+NWnxc8cw0U/Swn2gT9CEletcW+vzMqVCwwZtbeJj0Xo6o8v6Nb13uovWjsf/JkxUfnmz+92vnVTO/5qcajDblsXxpeDGEzQEaVUZD0ovBet7GQ2de2tCjeAecVEHdz0zMybOMXLFefIVZ5eJ893WC6fv7LNxMrHAU9ILmhGf9+QTDsTM0HepbdH98SPOT5vodXw7EjWUXJJKa8SYPd7DNQRjE4IBi2Xntg6vdne6pCxXwjZznXf3eHtafK+6SJDgJx5eIJcyr76EgNGZWMJkoGj/i95gfirgBPT7HGynOKVUtMUpzp4pvT2PzYicKIxOjl9vxpx4743dpi1//RIVS99CNJupdlnHctqEjnlnz0xWBjc4HGIz4+lX9S1HAYA+3e3gpDxJ2XJfx3YT99oqoux8C7M4hNNt+w/cHNgZ3xgmfKxLHzQBIW2RUB4q4YWRUVL613lLEXLbV1pgm+IckfREOqd3H6WFxKwssb/qg5NwvE3841C9VN78JCQ1O+UHm98Wnp7lcvtXKTRxvLtcttQndsOl6gLcaIG6O7TcoIRh+hs5NsbIQft50hP5p42U3Dk0cTNR/kyhL/SwuZd0ENzigpBsRdSU70nJSeyInHKg8fGoSaOtn0t7eHaVjqFBzU0fncNZDhCL8vfZ/uRfanCwYz4MaFl5E7M31CdyytztIWYwRJzizkT0GqG3KFCq/29OYVvnmtW8hhVBd6PyaK48iFTIUMhsxGXjt8x82XzFvxLjafgbgrzMiZCd/oeHn7FeEUEmw2XxoNv3wzwThrqjfPp+sOwbP+a723ZhUlDw1WfzXTy/tQ/XR/TPRJrh/unhK6Y1r+YW2xA1mJQsV6eip417ww1cRoCN6JXCJW+BOoxSEocGy01gytdun8cTIV2c3PJyp2bArBexUG4m4R5FRWvbxBnjBMWkhqIxJjbs/0mE3fCyszhNIA6S4ck2SzE7dqWWzjQFrvGBRos9XvNbun4RzW+/iKXpwRGjh77Npx63rPtcttNDZnVObeZwOGfzCIqUn+XjdjWvCum0dcSgI3XLDpIMOIPCBD4iQeZMZ51TWKdygwDXG3HLqGBtb6yHaQVcsrGx2T8w49uMmXJNNBEtnYXLAtKow7kN8SGsIrZmDgAb0stXUWvbVg7NF/Lp5h+rO2MsIVJGbs5xWmr5qm/MK1djHJcTklKfS6zkw0GJhvTzpkDCn5h8gwZDe2jf7bEVTAcoC4WxCTF6ai0zIZixtWJPG/P1vgzig4rNmjC5rtHk7S7BQs/kumu/BtOKKjdxGjwzV6r8mO6Dt+ih8Jh8bmUYdizTNCN4+sk9HuSc04iwNKlgTE3eKoa21d4STzLqtW4rOKkk3nMamXH++dOj/VyAuReGqkRvRTvLjW/u4N8ZEO2UF9GdCwXWibmpSa8UOj4hBYnawveBpT06O+vU3xjgN4QNwtkZEzE+5hgokgJPLqZifzSzyPrz/tsw8MEJdUiDcJMJbg2AgRN11u73rruuDuhd7YDG85u2uyXevmXzUn1NDZxSkmkvUFz/ZOkdLaMoG4Wy5F9Q3LHcRneGCzZKNTUu5Bc2636pee20Of/L11YKCquDKDRrib/bfN6Smo669iFJEHjI7g9rqtC/uM6GrPp36EL9k4+EbuKq/Jvjh9jDdTUYSvZnpptE4NbSITesvFi0xU8W4ChIC4WzSjZyd2HkgyxSq8hoVr7SMPKDy05PHk0cS1y+0dnWUkTO6h25fMznq6cK2dUKIoA3EOMW6t3yk4aM5MtiSjZ083mOe0kSFQg+4+GCtX7HVdyCBDE5PGp+HsaNFA3K2Apq7Ov3rJFpxPLz4RoZPj9Yqrki6/Pj797yvtbR0liRn7SZePlKdJudqn/zQiVzXJeld3mamPg8nL5ES9r6hAm4ZDpkgGqXinAHMCcbcOJi9MxWflypWUVYiNfts6O8vMHCnenHD9Lxets/+rh7dtgL/r9mCaInjs2rE1IjQ0IYpmDK3txXOO1i0KarKurjJqPpOax+INTgfyCsgUFe8OwBAg7tZE52D/5oA5UvZI5x1Xj+r63O/vKr9qbAouTh+bmmy4PdOjYMJCGaFmOtqQO2c+Vek4bg8/OTKkeBcAhgNxtzKmLp7Lrape4ShPkmIGL6yx898T1t9f9US9A3nrhRplYKAqMDrCdPsxWla6ehfW1ipu+cBYIO5Wyfj0mf05+a9skDOGnxDL7d2Scg58crlNcUUDBDVEUu5BahQzND0Z2L6cPATstVIg7lbM4MSpwLhEM4zdNNgHBja3FEl0VgHi+Pb2cEPTEWoC87Q1GVVA3H4yMMWNHIgG4m71HO/p3hyoPzO1KVhs4xgUG9HWUcLNKA1Mp+ntnaXBeyPptZuticmcyKgUN2wgEYi7Siisq1vpKmdqtDlZuNZ+W1T48daih2LTVQMh6JWeaC3y3xNmOl91vWB5XU1A3NXD5PmptJIy2bN/zMmLa+ycQoKPlKddunBcHS4oikCvjl5gQUW6c0iQjJmpDYTMJq24FMvragLirjaUkngNy+1dw/bvae0oNlsAW2uHXlRbR0lEYszrdvz8tJB1IAWIuzpRVuI12AUG5JakfDh1TMWnosTx5NHEuTONmYXJm/1Ne/AYsj6fgbirGeq3hwsKTRd9zECWbHTy3b2roCJ9cqL+u/nqbPPt7eGJU3V5ZWk+EaGmC+YFWQdaIO7qh0aJliDxGl5YY7fRb9v+9H3tnaU3P+m2rsgtRkGPNvNxZ0t7SXxqwvqt4jOEQNaBOCDu8wXqz9mVVTZ+8mdDlsJSW2fnkKC9qfFVdTnjp+puXe/5zTrlnqpNladHoAehx6GH0qSgshzW+wZnV1RB1ucPEPd5R1NXp19MgqljkInmlY2OTiHBsSlxZUez+vurrl5qtcCVHKoSVWxgoIoqGZMU5xgUaLpsGBKhhqbmRhzHeQjEfZ4yfHosNiPbQtZq5mSZnQspfuTBmLyytLaOkvNnG2c+7nz0pcmTST38YvD6PzrOnWlsaS/JLUmJSIwhHafKKP5CDOFNZ6+E7DxqaMWNDSgCxH1eM3lh6khNjRkiTZqOResdlmx0et3O9U2nLe+4eqzy8F7l4SMKb/o5XYQuRRdcJCoFoIXgEBxWVN+AdNXzHIg7eMrJkaE9qRkrHE0eORaYjredvfdmZCMwL9AAcQfPobFeVfMxr8jYReuseNw636DGoiarPNY8haE64ABxB3oYnhw/mF/wvodpM/sAiazxCUwuLKHGUtxggAUCcQcsWvt6Y9Kz3oPKWxLUHNFpmW39fYqbB7BkIO7AIEhKoPLKstorMD4rF5oODATiDoyDxCUuM4eERnGxmydoNL1raEDxpgfWBcQdiKR7ZDC5sMQ1dPfiDQpHSlEf9Epdd0YeLiyil6x4QwMrBeIOpDJ5fqrq+PHwwymrPLFoI4k13gGRyWk1J04gSACQDsQdyMnA+Gh2RZXPnr2v2W5RXCutAnpR9LqyKiqHJnCUFMgJxB2YhLMfTjd3dx0+UuQZEbPM3jqCHJiNNxw9vCJjkwqLj5/spheleGMBVQJxB+aga2ggq6LCf+++d7dYSvBbM/OOmy89fmZ5Zedgv+LNAeYDEHdgboYmxsoaGxPzjgTE7d/ov+M1WzfFlVd26KHo0egB6THpYbHkAswPxB0oz+iZ07WtrWmlZWEHU1x27l7p6v2C2TNEi4aqSqNy111REYdTM0rL69ta6XEUf6UAQNyBJTJ5fqq1r7ewtjYuM8c3On7d1qBXNlhE7guqBlWGqkQVK6ipa+ntmbwAzxZgiUDcgdUwPn2m79RoW39PfXtbeVNjfvXRlOKShOy8iKTUoPhE7917nbaH2/iF/GWL7zJ7dwOzkVAxKkw/oR/Sz70iY+lSdEG6LF2cblHW2Ei3o5vSrakCir8EAAwE4g4AACoE4g4AACoE4g4AACoE4g4AACoE4g4AACoE4g4AACoE4g4AACoE4g4AACoE4g4AACoE4g4AACoE4g4AACoE4g4AACoE4g4AACoE4g4AACoE4g4AACoE4g4AACoE4g4AACoE4g4AACoE4g4AACoE4g4AACoE4g4AACoE4g4AACoE4g4AACoE4g4AACoE4g4AACoE4g4AACoE4g4AACoE4g4AACoE4g4AACoE4g4AACoE4g4AACoE4g4AACoE4g4AACoE4g4AACoE4g4AACoE4g4AACoE4g4AACoE4g4AACoE4g4AACoE4g4AACoE4g4AACoE4g4AACoE4g4AACoE4g4AACoE4g4AACoE4g4AACrk/wFCkx8LDws8eQAAAABJRU5ErkJggg==;" parent="1" vertex="1">
          <mxGeometry x="20" y="12.5" width="45" height="45" as="geometry" />
        </mxCell>
      </root>
    </mxGraphModel>
  </diagram>
</mxfile>
